<svg width="35" height="35" viewBox="0 0 35 35" fill="none" xmlns="http://www.w3.org/2000/svg">
<g id="IMAGE" clip-path="url(#clip0_6_5)">
<g id="Group">

<g id="Group_2">
<path id="Vector_2" d="M25.0756 25.0736L23.7903 26.3589C23.6866 26.4625 23.5506 26.5275 23.4048 26.5431C23.2591 26.5586 23.1124 26.5238 22.9892 26.4444L21.5678 25.5305C21.1556 25.7402 20.7279 25.9177 20.2883 26.0614L19.9306 27.7103C19.8995 27.8533 19.8205 27.9814 19.7066 28.0734C19.5927 28.1654 19.4508 28.2156 19.3044 28.2158H15.6683C15.522 28.2156 15.3801 28.1654 15.2662 28.0734C15.1523 27.9814 15.0733 27.8533 15.0422 27.7103L14.6844 26.0614C14.2449 25.9177 13.8172 25.7402 13.405 25.5305L11.9836 26.4444C11.8604 26.5238 11.7137 26.5586 11.568 26.5431C11.4222 26.5275 11.2862 26.4625 11.1825 26.3589L8.61389 23.7883C8.51028 23.6847 8.44528 23.5486 8.42971 23.4029C8.41415 23.2571 8.44895 23.1104 8.52834 22.9872L9.44223 21.5658C9.23258 21.1537 9.05511 20.7259 8.91139 20.2864L7.26056 19.9286C7.11752 19.8976 6.98939 19.8185 6.89743 19.7047C6.80548 19.5908 6.75522 19.4489 6.755 19.3025V15.6683C6.75522 15.522 6.80548 15.3801 6.89743 15.2662C6.98939 15.1523 7.11752 15.0733 7.26056 15.0422L8.90945 14.6844C9.05316 14.2449 9.23064 13.8172 9.44028 13.405L8.52639 11.9836C8.44701 11.8604 8.4122 11.7137 8.42777 11.568C8.44334 11.4222 8.50833 11.2862 8.61195 11.1825L9.89723 9.89723L13.9592 13.9592C13.4956 14.4224 13.1278 14.9723 12.8767 15.5777C12.6257 16.183 12.4964 16.8319 12.4961 17.4872C12.4958 18.1426 12.6246 18.7915 12.8752 19.3971C13.1257 20.0027 13.4931 20.5529 13.9563 21.0165C14.4195 21.4801 14.9694 21.8479 15.5748 22.099C16.1801 22.35 16.829 22.4793 17.4843 22.4796C18.1397 22.4799 18.7886 22.3511 19.3942 22.1005C19.9998 21.85 20.55 21.4826 21.0136 21.0194L25.0756 25.0736Z" fill="black"/>
<path id="Vector_3" d="M19.6272 17.4883C19.6272 17.5389 19.6272 17.5895 19.6272 17.6381C19.5974 18.0467 19.4509 18.4381 19.2051 18.7659C18.9592 19.0937 18.6244 19.3439 18.2405 19.4869C17.8566 19.6299 17.4396 19.6596 17.0393 19.5725C16.6389 19.4854 16.272 19.2852 15.9822 18.9956C15.6924 18.706 15.4918 18.3393 15.4044 17.939C15.3169 17.5388 15.3463 17.1218 15.489 16.7377C15.6316 16.3537 15.8816 16.0186 16.2091 15.7725C16.5367 15.5264 16.9281 15.3796 17.3367 15.3494H17.4864C17.7674 15.3492 18.0458 15.4043 18.3055 15.5117C18.5652 15.6191 18.8012 15.7766 19 15.9752C19.1989 16.1739 19.3566 16.4097 19.4642 16.6694C19.5718 16.929 19.6272 17.2073 19.6272 17.4883Z" fill="black"/>
<path id="Vector_4" d="M17.4864 10.7372C17.3289 10.7372 17.1695 10.7372 17.0139 10.7528C15.8175 10.8368 14.6653 11.2396 13.6772 11.9195L14.9217 13.1639C15.5948 12.7628 16.3528 12.5257 17.1345 12.4717C17.2511 12.4717 17.3698 12.46 17.4884 12.46C18.8225 12.46 20.102 12.99 21.0453 13.9333C21.9887 14.8767 22.5186 16.1562 22.5186 17.4903C22.5186 17.6089 22.5186 17.7256 22.507 17.8442C22.4529 18.6258 22.2158 19.3838 21.8147 20.0569L23.0592 21.3014C23.739 20.3133 24.1419 19.1612 24.2259 17.9647C24.2259 17.8092 24.2414 17.6497 24.2414 17.4922C24.2422 16.6049 24.068 15.7262 23.7288 14.9063C23.3896 14.0864 22.892 13.3414 22.2646 12.714C21.6372 12.0866 20.8922 11.5891 20.0723 11.2499C19.2524 10.9107 18.3737 10.7365 17.4864 10.7372Z" fill="black"/>
<path id="Vector_5" d="M17.4864 6.755C17.2336 6.755 16.9828 6.755 16.7339 6.78028C14.5802 6.92982 12.5222 7.72766 10.8306 9.06889L11.8767 10.115C13.3112 9.01877 15.0359 8.3677 16.8369 8.2425C17.0508 8.22889 17.2686 8.22111 17.4864 8.22111C19.943 8.22163 22.2989 9.19775 24.036 10.9348C25.7731 12.6719 26.7492 15.0278 26.7497 17.4844C26.7497 17.7022 26.7497 17.92 26.7283 18.1339C26.6032 19.935 25.9521 21.6597 24.8558 23.0942L25.902 24.1403C27.2439 22.4488 28.0424 20.3908 28.1925 18.2369C28.2081 17.9881 28.2178 17.7353 28.2178 17.4844C28.2168 14.6388 27.0857 11.91 25.0734 9.89803C23.061 7.88604 20.332 6.75552 17.4864 6.755Z" fill="black"/>
</g>
</g>
</g>
<defs>
<clipPath id="clip0_6_5">
<rect width="35" height="35" fill="white"/>
</clipPath>
</defs>
</svg>
