<svg width="35" height="35" viewBox="0 0 35 35" fill="none" xmlns="http://www.w3.org/2000/svg">
<g id="IMAGE" clip-path="url(#clip0_6_13)">
<g id="Group">

<g id="Group_2">
<path id="Vector_2" d="M20.6988 23.135L19.221 24.6128H10.4302C9.70407 24.6128 9.0077 24.3243 8.49427 23.8109C7.98084 23.2975 7.69238 22.6011 7.69238 21.875C7.69238 21.1489 7.98084 20.4525 8.49427 19.9391C9.0077 19.4257 9.70407 19.1372 10.4302 19.1372H14.531L15.6277 20.615H10.4302C10.095 20.615 9.77349 20.7482 9.53647 20.9852C9.29944 21.2222 9.16628 21.5437 9.16628 21.8789C9.16628 22.2141 9.29944 22.5356 9.53647 22.7726C9.77349 23.0096 10.095 23.1428 10.4302 23.1428L20.6988 23.135Z" fill="black"/>
<path id="Vector_3" d="M23.3082 23.1603C22.7182 23.1599 22.1413 23.3345 21.6506 23.662C21.1598 23.9896 20.7772 24.4553 20.5511 25.0003C20.325 25.5453 20.2657 26.1451 20.3806 26.7238C20.4954 27.3025 20.7794 27.8342 21.1965 28.2515C21.6136 28.6688 22.145 28.9531 22.7237 29.0684C23.3023 29.1836 23.9021 29.1247 24.4473 28.899C24.9924 28.6733 25.4584 28.291 25.7862 27.8004C26.1141 27.3098 26.2891 26.7331 26.2891 26.143C26.2881 25.3526 25.9737 24.5949 25.415 24.0358C24.8563 23.4767 24.0986 23.1618 23.3082 23.1603ZM23.3082 27.6481C23.0105 27.6485 22.7193 27.5605 22.4716 27.3953C22.2238 27.2302 22.0306 26.9953 21.9164 26.7204C21.8022 26.4454 21.7721 26.1427 21.83 25.8506C21.8878 25.5585 22.031 25.2902 22.2414 25.0796C22.4518 24.8689 22.72 24.7254 23.012 24.6671C23.304 24.6089 23.6067 24.6386 23.8818 24.7524C24.1569 24.8663 24.392 25.0592 24.5575 25.3067C24.7229 25.5542 24.8113 25.8453 24.8113 26.143C24.8113 26.5419 24.653 26.9244 24.3712 27.2066C24.0893 27.4888 23.707 27.6476 23.3082 27.6481Z" fill="black"/>
<path id="Vector_4" d="M17.7627 5.72445C16.7036 5.7284 15.6665 6.02636 14.7669 6.58512C13.8672 7.14388 13.1404 7.94149 12.6674 8.88906C12.1944 9.83663 11.9939 10.8969 12.0881 11.9518C12.1823 13.0066 12.5676 14.0146 13.201 14.8633L17.2105 20.2689C17.2791 20.3625 17.3688 20.4387 17.4724 20.4912C17.5759 20.5436 17.6904 20.571 17.8064 20.571C17.9225 20.571 18.037 20.5436 18.1405 20.4912C18.2441 20.4387 18.3338 20.3625 18.4024 20.2689L22.2913 14.9236C22.9404 14.0774 23.34 13.0665 23.4448 12.0051C23.5496 10.9437 23.3556 9.8742 22.8845 8.91732C22.4134 7.96045 21.6842 7.15438 20.7791 6.59017C19.8741 6.02595 18.8292 5.72609 17.7627 5.72445ZM17.7627 13.5839C17.3238 13.5843 16.8947 13.4545 16.5296 13.2109C16.1645 12.9674 15.8798 12.621 15.7116 12.2157C15.5434 11.8103 15.4991 11.3641 15.5845 10.9336C15.6699 10.5031 15.8811 10.1076 16.1913 9.79717C16.5015 9.4867 16.8968 9.2752 17.3272 9.18944C17.7576 9.10368 18.2038 9.1475 18.6093 9.31536C19.0148 9.48323 19.3615 9.76759 19.6053 10.1325C19.8492 10.4974 19.9793 10.9264 19.9793 11.3653C19.9788 11.9532 19.7452 12.5169 19.3297 12.9328C18.9141 13.3487 18.3506 13.5829 17.7627 13.5839Z" fill="black"/>
</g>
</g>
</g>
<defs>
<clipPath id="clip0_6_13">
<rect width="35" height="35" fill="white"/>
</clipPath>
</defs>
</svg>
