<svg width="35" height="35" viewBox="0 0 35 35" fill="none" xmlns="http://www.w3.org/2000/svg">
<g id="IMAGE" clip-path="url(#clip0_6_20)">
<g id="Group">

<g id="Group_2">
<path id="Vector_2" d="M25.0172 25.4042C25.093 27.4769 21.1283 28.6378 17.3327 28.6378C13.5372 28.6378 9.72412 27.5353 9.72412 25.4411C9.72412 23.9769 11.6258 22.9872 14.0797 22.5497C14.5554 23.0255 14.9929 23.4442 15.3922 23.8058C12.7108 24.1111 11.1494 24.9472 11.1494 25.4606C11.1494 25.9739 13.5275 27.1347 17.3327 27.1347C21.138 27.1347 23.5919 25.9933 23.5919 25.3847C23.5919 24.7761 21.9566 23.9964 19.178 23.73C19.5766 23.3683 20.0336 22.9522 20.51 22.4739C23.0416 22.9114 25.0172 23.9011 25.0172 25.4042Z" fill="black"/>
<path id="Vector_3" d="M17.2064 7.77778C16.1688 7.77922 15.1521 8.0692 14.2698 8.6153C13.3876 9.1614 12.6746 9.94211 12.2106 10.8702C11.7466 11.7982 11.5498 12.837 11.6423 13.8705C11.7347 14.9039 12.1128 15.8913 12.7342 16.7222L16.6561 22.0053C16.7233 22.0969 16.8111 22.1714 16.9125 22.2228C17.0138 22.2741 17.1258 22.3009 17.2394 22.3009C17.3531 22.3009 17.4651 22.2741 17.5664 22.2228C17.6678 22.1714 17.7556 22.0969 17.8228 22.0053L21.6241 16.7747C22.2579 15.9477 22.6482 14.9601 22.7509 13.9233C22.8536 12.8864 22.6647 11.8415 22.2054 10.9062C21.7462 9.97094 21.0348 9.18252 20.1516 8.62978C19.2684 8.07704 18.2483 7.78196 17.2064 7.77778ZM17.2064 15.4661C16.7773 15.4657 16.3579 15.3381 16.0013 15.0995C15.6447 14.8608 15.3669 14.5217 15.203 14.1252C15.039 13.7286 14.9963 13.2924 15.0803 12.8716C15.1642 12.4508 15.371 12.0643 15.6746 11.761C15.9782 11.4577 16.3648 11.2512 16.7857 11.1677C17.2066 11.0841 17.6428 11.1272 18.0392 11.2915C18.4356 11.4558 18.7744 11.7339 19.0128 12.0907C19.2511 12.4475 19.3783 12.867 19.3783 13.2961C19.3778 13.8718 19.1487 14.4238 18.7415 14.8307C18.3342 15.2376 17.7821 15.4661 17.2064 15.4661Z" fill="black"/>
</g>
</g>
</g>
<defs>
<clipPath id="clip0_6_20">
<rect width="35" height="35" fill="white"/>
</clipPath>
</defs>
</svg>
