<svg width="35" height="35" viewBox="0 0 35 35" fill="none" xmlns="http://www.w3.org/2000/svg">
<g id="IMAGE" clip-path="url(#clip0_6_26)">
<g id="Group">

<g id="Group_2">
<path id="Vector_2" d="M11.9914 8.7325C11.4082 8.70682 10.8376 8.90745 10.3989 9.2925L10.358 9.33334C9.85021 9.81366 9.44924 10.3956 9.18122 11.0411C8.91321 11.6867 8.78416 12.3815 8.80249 13.0803C8.93714 14.782 9.57243 16.4057 10.6283 17.7469L10.6536 17.78L10.7217 17.8753L10.7547 17.92C12.6298 20.8273 15.2836 23.1496 18.4139 24.6225C19.8462 25.3184 21.392 25.7511 22.9775 25.9C23.2772 25.8985 23.5759 25.864 23.868 25.7969C24.5085 25.6794 25.115 25.4213 25.6438 25.0414C26.1727 24.6615 26.6108 24.1691 26.9267 23.5997C27.2181 22.9187 27.3104 22.1689 27.193 21.4375C27.1055 21.2858 26.9014 21.1847 26.5883 21.035L26.5533 21.0175L26.3219 20.9047C25.9194 20.7103 23.6425 19.5786 23.2108 19.4308C23.0867 19.3825 22.9551 19.3561 22.8219 19.3531C22.6759 19.356 22.5329 19.3959 22.4065 19.469C22.28 19.5421 22.1741 19.646 22.0986 19.7711L21.943 19.9908C21.6181 20.4718 21.2662 20.934 20.8892 21.3753C20.8042 21.4617 20.7024 21.5296 20.5899 21.5748C20.4775 21.62 20.3569 21.6414 20.2358 21.6378C20.0823 21.6377 19.9303 21.6073 19.7886 21.5483L19.6992 21.5094L19.6447 21.4861C18.3463 20.9832 17.1518 20.2449 16.1214 19.3083C15.1279 18.3918 14.276 17.3328 13.5936 16.1661C13.4969 16.0134 13.461 15.83 13.493 15.6521C13.5251 15.4742 13.6227 15.3149 13.7667 15.2056V15.1958C13.895 15.0403 14.0194 14.9061 14.14 14.7778L14.1692 14.7642C14.2664 14.6611 14.3636 14.56 14.4589 14.4472L14.4978 14.4044C14.69 14.2062 14.8471 13.9767 14.9625 13.7258C15.0195 13.5901 15.0433 13.4427 15.0318 13.2959C15.0203 13.1491 14.9739 13.0072 14.8964 12.8819C14.8264 12.74 14.3889 11.6919 14.0117 10.7644L13.963 10.6478L13.9105 10.5233C13.7511 10.1344 13.6033 9.77472 13.4964 9.52195C13.2008 8.81417 12.9772 8.77334 12.5047 8.74417H12.4483C12.318 8.73834 12.1605 8.7325 11.9914 8.7325Z" fill="black"/>
</g>
</g>
</g>
<defs>
<clipPath id="clip0_6_26">
<rect width="35" height="35" fill="white"/>
</clipPath>
</defs>
</svg>
