<svg width="29" height="29" viewBox="0 0 29 29" fill="none" xmlns="http://www.w3.org/2000/svg">
<g id="IMAGE" clip-path="url(#clip0_6_141)">
<g id="Group">
<path id="Vector" d="M22.797 10.257H28.997V28.998H15.887V21.957C14.1731 22.6807 12.3079 22.9731 10.4548 22.8083C8.60167 22.6436 6.81729 22.0267 5.258 21.012C3.99588 20.2284 2.90502 19.1981 2.05082 17.9827C1.19662 16.7673 0.596674 15.3919 0.286993 13.939C-0.374036 11.0284 0.134018 7.97466 1.70182 5.43491C3.26962 2.89516 5.77183 1.07242 8.66999 0.358963C10.2516 -0.059278 11.9065 -0.119478 13.5143 0.182739C15.1221 0.484956 16.6422 1.14197 17.964 2.10596C19.3087 3.03672 20.4367 4.24682 21.2708 5.65356C22.1049 7.06031 22.6255 8.63054 22.797 10.257ZM19.548 10.185C19.541 10.122 19.54 10.096 19.536 10.069C19.186 7.90439 17.993 5.96652 16.2179 4.67926C14.4428 3.392 12.2302 2.86012 10.064 3.19997C7.91785 3.54082 5.99206 4.71268 4.7031 6.46217C3.41414 8.21167 2.86558 10.3982 3.176 12.549C3.37325 13.8977 3.90012 15.1769 4.70994 16.2733C5.51976 17.3696 6.5875 18.2493 7.81858 18.8344C9.04966 19.4195 10.4061 19.6919 11.7676 19.6274C13.1291 19.563 14.4537 19.1637 15.624 18.465C15.6821 18.4348 15.7297 18.3876 15.7604 18.3298C15.7912 18.2719 15.8036 18.206 15.796 18.141C15.792 15.581 15.792 13.021 15.796 10.461V10.185H19.548ZM16.69 28.201H28.201V11.057H16.69V28.201ZM15.883 19.286C14.7113 19.96 13.4026 20.3611 12.0544 20.4596C10.7063 20.5581 9.35326 20.3515 8.09598 19.855C6.82595 19.391 5.68017 18.6402 4.74787 17.6609C3.81557 16.6816 3.12193 15.5003 2.72098 14.209C1.96655 11.9289 2.14625 9.44282 3.22074 7.29497C4.29523 5.14711 6.17696 3.51249 8.45399 2.74896C9.577 2.35196 10.7691 2.18783 11.9576 2.26657C13.1461 2.34531 14.3062 2.66528 15.367 3.20697C16.7291 3.86233 17.905 4.84891 18.7871 6.07639C19.6692 7.30386 20.2292 8.73301 20.416 10.233H21.94C21.923 10.091 21.911 9.96396 21.893 9.83896C21.6829 8.43388 21.1927 7.08534 20.4514 5.87338C19.7101 4.66143 18.7328 3.61077 17.5776 2.7838C16.4224 1.95683 15.1128 1.37041 13.7266 1.05934C12.3404 0.74827 10.9058 0.718889 9.508 0.972961C7.72398 1.29975 6.05341 2.07813 4.65561 3.23386C3.25782 4.38958 2.1794 5.88413 1.5232 7.57497C0.866999 9.26581 0.654889 11.0966 0.90711 12.8926C1.15933 14.6887 1.86747 16.3903 2.96399 17.835C4.37572 19.6991 6.36338 21.045 8.61838 21.6638C10.8734 22.2825 13.2696 22.1395 15.435 21.257C15.881 21.073 15.88 21.07 15.88 20.58L15.883 19.286Z" fill="black"/>
<path id="Vector_2" d="M9.837 11.9349V13.0479H10.063C10.629 13.0479 11.195 13.0479 11.763 13.0479C11.8337 13.0384 11.9056 13.0441 11.9739 13.0646C12.0422 13.0851 12.1053 13.12 12.159 13.167C12.2127 13.2139 12.2557 13.2718 12.2852 13.3367C12.3147 13.4016 12.33 13.4721 12.33 13.5434C12.33 13.6147 12.3147 13.6852 12.2852 13.7502C12.2557 13.8151 12.2127 13.873 12.159 13.9199C12.1053 13.9668 12.0422 14.0017 11.9739 14.0223C11.9056 14.0428 11.8337 14.0485 11.763 14.0389C11.197 14.0389 10.631 14.0389 10.063 14.0389C9.99101 14.0389 9.919 14.0449 9.821 14.0489C9.821 14.3819 9.834 14.6979 9.821 15.0119C9.81986 15.0935 9.79767 15.1734 9.75661 15.2439C9.71555 15.3144 9.65702 15.3731 9.58663 15.4143C9.51624 15.4555 9.43639 15.4779 9.35482 15.4792C9.27325 15.4806 9.1927 15.4608 9.12099 15.4219C9.03385 15.3762 8.96213 15.3058 8.91482 15.2196C8.8675 15.1333 8.8467 15.035 8.855 14.9369C8.855 14.6539 8.84899 14.3719 8.84499 14.0889C8.84008 14.0714 8.83374 14.0544 8.82601 14.0379C8.72601 14.0379 8.61401 14.0379 8.50301 14.0379C8.43227 14.0468 8.36047 14.0405 8.29238 14.0193C8.22429 13.9981 8.16149 13.9627 8.10824 13.9152C8.05499 13.8678 8.01249 13.8096 7.9836 13.7444C7.95472 13.6792 7.94011 13.6086 7.94076 13.5373C7.9414 13.466 7.95732 13.3956 7.98739 13.331C8.01745 13.2663 8.06097 13.2089 8.11507 13.1624C8.16918 13.116 8.23258 13.0817 8.30105 13.0617C8.36951 13.0418 8.44147 13.0368 8.51204 13.0469C8.61804 13.0469 8.72405 13.0469 8.85305 13.0469V12.7869C8.85305 11.0289 8.85305 9.2706 8.85305 7.51193C8.85305 7.02293 8.98905 6.88693 9.47805 6.88693C10.333 6.88693 11.189 6.87693 12.045 6.89193C12.3487 6.89334 12.6511 6.93264 12.945 7.00893C13.4811 7.17381 13.9465 7.51342 14.2671 7.97361C14.5877 8.43379 14.745 8.98806 14.7139 9.54805C14.6829 10.108 14.4653 10.6415 14.0957 11.0634C13.7262 11.4853 13.226 11.7714 12.675 11.8759C12.4435 11.913 12.2094 11.9317 11.975 11.9319C11.342 11.9389 10.709 11.9319 10.075 11.9319L9.837 11.9349ZM9.837 11.0349C9.861 11.0499 9.86703 11.0559 9.87203 11.0559C10.693 11.0509 11.518 11.0899 12.334 11.0259C12.7197 10.9692 13.0724 10.7765 13.3284 10.4825C13.5844 10.1886 13.7269 9.81279 13.7301 9.42299C13.7334 9.0332 13.5972 8.65508 13.3462 8.3569C13.0951 8.05871 12.7457 7.86011 12.361 7.79693C11.539 7.72593 10.707 7.76893 9.87899 7.76193C9.86799 7.76193 9.858 7.77493 9.837 7.78893V11.0349Z" fill="black"/>
<path id="Vector_3" d="M27.099 12.335V17.215H17.834V17.015C17.834 15.526 17.834 14.038 17.834 12.549C17.834 12.379 17.885 12.336 18.05 12.336C21 12.3406 23.9503 12.3406 26.901 12.336L27.099 12.335ZM18.644 16.412H26.299V13.15H18.646L18.644 16.412Z" fill="black"/>
<path id="Vector_4" d="M25.158 21.8269H26.4579V23.1369H25.158V21.8269Z" fill="black"/>
<path id="Vector_5" d="M19.845 19.1689V20.4789H18.525V19.645C18.525 19.17 18.525 19.17 18.995 19.17L19.845 19.1689Z" fill="black"/>
<path id="Vector_6" d="M23.155 20.4849H21.855V19.1849H23.155V20.4849Z" fill="black"/>
<path id="Vector_7" d="M26.4641 19.182V20.482H25.158V19.182H26.4641Z" fill="black"/>
<path id="Vector_8" d="M19.836 23.14H18.536V21.84H19.836V23.14Z" fill="black"/>
<path id="Vector_9" d="M21.852 21.8259H23.152V23.1319H21.852V21.8259Z" fill="black"/>
<path id="Vector_10" d="M18.535 24.48H19.835V25.78H18.535V24.48Z" fill="black"/>
<path id="Vector_11" d="M21.85 25.785V24.485H23.15V25.785H21.85Z" fill="black"/>
<path id="Vector_12" d="M26.462 25.7859H25.162V24.486H26.462V25.7859Z" fill="black"/>
</g>
</g>
<defs>
<clipPath id="clip0_6_141">
<rect width="29" height="29" fill="white"/>
</clipPath>
</defs>
</svg>
