<svg width="29" height="29" viewBox="0 0 29 29" fill="none" xmlns="http://www.w3.org/2000/svg">
<g id="IMAGE" clip-path="url(#clip0_34_525)">
<g id="Union">
<path d="M15.6154 5.57692C15.6154 4.96091 15.116 4.46154 14.5 4.46154C13.884 4.46154 13.3846 4.96091 13.3846 5.57692V14.962L19.2882 20.8656C19.7238 21.3012 20.43 21.3012 20.8656 20.8656C21.3012 20.43 21.3012 19.7238 20.8656 19.2882L15.6154 14.038V5.57692Z" fill="black"/>
<path fill-rule="evenodd" clip-rule="evenodd" d="M14.5 0C6.49187 0 0 6.49187 0 14.5C0 22.5081 6.49187 29 14.5 29C22.5081 29 29 22.5081 29 14.5C29 6.49187 22.5081 0 14.5 0ZM2.23077 14.5C2.23077 7.72389 7.72389 2.23077 14.5 2.23077C21.2761 2.23077 26.7692 7.72389 26.7692 14.5C26.7692 21.2761 21.2761 26.7692 14.5 26.7692C7.72389 26.7692 2.23077 21.2761 2.23077 14.5Z" fill="black"/>
<path d="M15.6154 5.57692C15.6154 4.96091 15.116 4.46154 14.5 4.46154C13.884 4.46154 13.3846 4.96091 13.3846 5.57692V14.962L19.2882 20.8656C19.7238 21.3012 20.43 21.3012 20.8656 20.8656C21.3012 20.43 21.3012 19.7238 20.8656 19.2882L15.6154 14.038V5.57692Z" stroke="white" stroke-linecap="round"/>
<path fill-rule="evenodd" clip-rule="evenodd" d="M14.5 0C6.49187 0 0 6.49187 0 14.5C0 22.5081 6.49187 29 14.5 29C22.5081 29 29 22.5081 29 14.5C29 6.49187 22.5081 0 14.5 0ZM2.23077 14.5C2.23077 7.72389 7.72389 2.23077 14.5 2.23077C21.2761 2.23077 26.7692 7.72389 26.7692 14.5C26.7692 21.2761 21.2761 26.7692 14.5 26.7692C7.72389 26.7692 2.23077 21.2761 2.23077 14.5Z" stroke="white" stroke-linecap="round"/>
</g>
</g>
<defs>
<clipPath id="clip0_34_525">
<rect width="29" height="29" fill="white"/>
</clipPath>
</defs>
</svg>
