<svg width="26" height="26" viewBox="0 0 26 26" fill="none" xmlns="http://www.w3.org/2000/svg">
<g id="IMAGE" clip-path="url(#clip0_6_132)">
<g id="Group">
<path id="Vector" d="M0.0600278 2.52003L1.88703 5.72503C1.91763 5.7786 1.95873 5.82543 2.00788 5.86272C2.05703 5.90001 2.1132 5.92699 2.17303 5.94203L3.88703 6.37003L9.74803 12.231L10.396 11.584L4.44303 5.63103C4.38464 5.57222 4.31136 5.5304 4.23103 5.51003L2.58703 5.09803L1.02803 2.36703L2.36603 1.03003L5.09703 2.59103L5.50903 4.23303C5.52894 4.31361 5.57043 4.38725 5.62903 4.44603L11.587 10.399L12.234 9.75103L6.36903 3.89003L5.94203 2.18203C5.92705 2.12205 5.90011 2.0657 5.86282 2.01638C5.82553 1.96707 5.77866 1.92579 5.72503 1.89503L2.51903 0.0640333C2.43199 0.014721 2.33121 -0.00474072 2.23207 0.00862196C2.13294 0.0219846 2.0409 0.0674368 1.97003 0.138033L0.138028 1.96903C0.0665603 2.0395 0.0202174 2.13149 0.00612496 2.23086C-0.00796749 2.33023 0.0109708 2.43248 0.0600278 2.52003Z" fill="black"/>
<path id="Vector_2" d="M7.26104 17.968C7.22028 17.9002 7.16266 17.8441 7.09378 17.8052C7.02491 17.7663 6.94714 17.7459 6.86804 17.746H4.12104C4.04209 17.746 3.96448 17.7664 3.89578 17.8053C3.82708 17.8442 3.76964 17.9003 3.72904 17.968L2.35504 20.258C2.31219 20.3292 2.28955 20.4108 2.28955 20.494C2.28955 20.5771 2.31219 20.6587 2.35504 20.73L3.72904 23.019C3.76971 23.0866 3.82717 23.1426 3.89585 23.1815C3.96454 23.2204 4.04211 23.2409 4.12104 23.241H6.86804C6.94714 23.2411 7.02491 23.2207 7.09378 23.1818C7.16266 23.1429 7.22028 23.0868 7.26104 23.019L8.63504 20.73C8.67788 20.6587 8.70052 20.5771 8.70052 20.494C8.70052 20.4108 8.67788 20.3292 8.63504 20.258L7.26104 17.968ZM6.60904 22.325H4.38004L3.28004 20.493L4.38004 18.661H6.60904L7.70904 20.493L6.60904 22.325Z" fill="black"/>
<path id="Vector_3" d="M20.791 10.4C21.5814 10.4023 22.3618 10.2237 23.0725 9.87791C23.7832 9.53212 24.4053 9.02828 24.8913 8.40498C25.3772 7.78167 25.7141 7.05543 25.8761 6.28186C26.0382 5.50829 26.021 4.7079 25.826 3.94197C25.8073 3.86778 25.7692 3.79988 25.7156 3.74519C25.6621 3.69051 25.595 3.65099 25.5212 3.63067C25.4474 3.61034 25.3696 3.60993 25.2956 3.62949C25.2216 3.64904 25.1541 3.68785 25.1 3.74197L22.4 6.43597L20.261 5.72297L19.548 3.58397L22.248 0.883973C22.3024 0.829888 22.3414 0.76233 22.3611 0.688208C22.3808 0.614086 22.3805 0.53606 22.3602 0.462111C22.3398 0.388161 22.3002 0.320943 22.2453 0.267329C22.1905 0.213716 22.1224 0.175632 22.048 0.156973C21.2817 -0.0372451 20.481 -0.0535426 19.7074 0.109328C18.9338 0.272199 18.2077 0.609919 17.5847 1.09664C16.9617 1.58335 16.4583 2.20616 16.1131 2.91739C15.7679 3.62861 15.59 4.4094 15.593 5.19997C15.5939 5.54097 15.6291 5.88102 15.698 6.21497L6.21201 15.7C5.87803 15.6312 5.538 15.596 5.19701 15.595C4.16855 15.595 3.16318 15.8999 2.30805 16.4713C1.45291 17.0427 0.786414 17.8548 0.392838 18.805C-0.000737667 19.7552 -0.103715 20.8007 0.0969282 21.8094C0.297571 22.8181 0.792823 23.7447 1.52006 24.4719C2.24729 25.1992 3.17384 25.6944 4.18254 25.8951C5.19124 26.0957 6.23679 25.9927 7.18697 25.5991C8.13714 25.2056 8.94927 24.5391 9.52065 23.6839C10.092 22.8288 10.397 21.8234 10.397 20.795C10.396 20.454 10.3609 20.1139 10.292 19.78L12.563 17.509L13.556 18.502C13.5962 18.5423 13.644 18.5743 13.6966 18.5961C13.7492 18.6179 13.8056 18.6291 13.8625 18.6291C13.9195 18.6291 13.9758 18.6179 14.0284 18.5961C14.081 18.5743 14.1288 18.5423 14.169 18.502L14.385 18.285C14.4769 18.1982 14.5989 18.1506 14.7253 18.1523C14.8517 18.154 14.9724 18.2049 15.0619 18.2941C15.1514 18.3833 15.2026 18.5039 15.2047 18.6303C15.2068 18.7567 15.1595 18.8789 15.073 18.971L14.857 19.187C14.7759 19.2682 14.7304 19.3782 14.7304 19.493C14.7304 19.6077 14.7759 19.7178 14.857 19.799L20.024 24.966C20.3406 25.3192 20.7258 25.6044 21.156 25.8042C21.5862 26.004 22.0526 26.1143 22.5268 26.1283C23.0009 26.1423 23.473 26.0598 23.9143 25.8858C24.3556 25.7118 24.7569 25.4498 25.0938 25.1159C25.4308 24.782 25.6963 24.3831 25.8744 23.9434C26.0524 23.5038 26.1392 23.0325 26.1295 22.5582C26.1198 22.0839 26.0138 21.6166 25.8179 21.1845C25.622 20.7525 25.3403 20.3648 24.99 20.045L24.968 20.023L19.801 14.856C19.7198 14.7749 19.6098 14.7293 19.495 14.7293C19.3803 14.7293 19.2702 14.7749 19.189 14.856L18.973 15.072C18.8811 15.1588 18.7591 15.2063 18.6327 15.2046C18.5063 15.2029 18.3856 15.1521 18.2961 15.0628C18.2066 14.9736 18.1554 14.853 18.1533 14.7267C18.1513 14.6003 18.1985 14.4781 18.285 14.386L18.502 14.169C18.5831 14.0878 18.6287 13.9777 18.6287 13.863C18.6287 13.7482 18.5831 13.6382 18.502 13.557L17.509 12.564L19.78 10.293C20.114 10.3618 20.454 10.397 20.795 10.398L20.791 10.4ZM22.491 25.127C22.1764 25.1265 21.8645 25.0696 21.57 24.959L24.953 21.576C25.1024 21.9737 25.1532 22.4017 25.1009 22.8233C25.0486 23.245 24.8948 23.6476 24.6527 23.9968C24.4107 24.3459 24.0875 24.6312 23.711 24.828C23.3345 25.0248 22.9159 25.1274 22.491 25.127ZM17.586 13.865C17.3731 14.1247 17.2645 14.4544 17.2813 14.7899C17.2981 15.1253 17.4392 15.4425 17.6771 15.6796C17.915 15.9167 18.2326 16.0568 18.5681 16.0726C18.9036 16.0884 19.2329 15.9787 19.492 15.765L24.353 20.63C24.406 20.683 24.453 20.739 24.503 20.795L20.803 24.495C20.746 24.447 20.69 24.395 20.637 24.345L15.772 19.48C15.9849 19.2202 16.0936 18.8905 16.0767 18.5551C16.0599 18.2196 15.9188 17.9024 15.6809 17.6653C15.4431 17.4282 15.1254 17.2881 14.7899 17.2723C14.4544 17.2566 14.1251 17.3662 13.866 17.58L13.173 16.887L16.896 13.17L17.586 13.865ZM19.335 9.50897L9.50901 19.333C9.45607 19.386 9.41774 19.4518 9.39777 19.524C9.37779 19.5962 9.37684 19.6723 9.39501 19.745C9.63057 20.6706 9.55568 21.6479 9.18187 22.5268C8.80805 23.4057 8.15599 24.1375 7.32587 24.6098C6.49575 25.0821 5.53351 25.2688 4.58699 25.1412C3.64048 25.0135 2.76206 24.5786 2.08671 23.9033C1.41136 23.2279 0.976454 22.3495 0.848809 21.403C0.721165 20.4565 0.907847 19.4942 1.38017 18.6641C1.85249 17.834 2.58433 17.1819 3.46322 16.8081C4.34211 16.4343 5.31943 16.3594 6.24501 16.595C6.3177 16.6128 6.39376 16.6118 6.4659 16.5918C6.53805 16.5718 6.60385 16.5337 6.65701 16.481L16.481 6.65697C16.5339 6.60413 16.5721 6.53851 16.5921 6.46648C16.6121 6.39446 16.6131 6.31849 16.595 6.24597C16.4262 5.58754 16.4156 4.89853 16.5639 4.23519C16.7122 3.57185 17.0153 2.953 17.4485 2.42917C17.8816 1.90534 18.4325 1.49138 19.0562 1.22109C19.6798 0.950809 20.3586 0.831865 21.037 0.873973L18.752 3.15997C18.696 3.21731 18.6569 3.28909 18.6393 3.36731C18.6216 3.44553 18.626 3.52711 18.652 3.60297L19.518 6.20297C19.5393 6.26675 19.5752 6.3247 19.6227 6.37225C19.6703 6.4198 19.7282 6.45565 19.792 6.47697L22.392 7.34297C22.4679 7.36896 22.5495 7.37337 22.6277 7.35571C22.7059 7.33806 22.7777 7.29903 22.835 7.24297L25.12 4.95797C25.125 5.04097 25.128 5.12197 25.128 5.20397C25.1319 5.86305 24.9846 6.51425 24.6974 7.10746C24.4102 7.70068 23.9907 8.22011 23.4713 8.62578C22.9518 9.03145 22.3462 9.31255 21.7011 9.44746C21.056 9.58237 20.3885 9.5675 19.75 9.40397C19.6773 9.3858 19.6012 9.38675 19.529 9.40673C19.4568 9.42671 19.391 9.46503 19.338 9.51797L19.335 9.50897Z" fill="black"/>
</g>
</g>
<defs>
<clipPath id="clip0_6_132">
<rect width="26" height="26" fill="white"/>
</clipPath>
</defs>
</svg>
