<svg width="29" height="23" viewBox="0 0 29 23" fill="none" xmlns="http://www.w3.org/2000/svg">
<g id="IMAGE" clip-path="url(#clip0_6_120)">
<g id="Group">
<g id="Group_2">
<g id="Group_3">
<path id="Vector" d="M20.855 12.4621C20.7612 12.3412 20.641 12.2435 20.5035 12.1764C20.366 12.1093 20.215 12.0746 20.062 12.0751H8.936C8.78312 12.0751 8.63224 12.1099 8.49484 12.1769C8.35744 12.244 8.23712 12.3415 8.14304 12.462C8.04895 12.5825 7.98356 12.7228 7.95184 12.8724C7.92013 13.0219 7.92293 13.1768 7.96001 13.3251L8.22 14.3631C8.27346 14.5812 8.39882 14.7751 8.57588 14.9133C8.75294 15.0515 8.97137 15.1262 9.196 15.1251H19.804C20.0286 15.1262 20.2471 15.0515 20.4241 14.9133C20.6012 14.7751 20.7265 14.5812 20.78 14.3631L21.04 13.3251C21.0772 13.1767 21.0799 13.0217 21.0479 12.8721C21.0158 12.7225 20.9498 12.5822 20.855 12.4621ZM20.094 13.0891L19.834 14.1271C19.8324 14.1341 19.8285 14.1405 19.8229 14.145C19.8172 14.1495 19.8102 14.152 19.803 14.1521H9.19501C9.18778 14.152 9.18077 14.1495 9.17514 14.145C9.16951 14.1405 9.16558 14.1341 9.164 14.1271L8.90401 13.0891C8.90279 13.0844 8.90265 13.0794 8.90364 13.0746C8.90463 13.0698 8.90671 13.0654 8.9097 13.0615C8.91269 13.0576 8.91653 13.0545 8.92091 13.0523C8.9253 13.0502 8.93011 13.0491 8.935 13.0491H20.062C20.0668 13.0493 20.0715 13.0505 20.0758 13.0527C20.0801 13.0549 20.0839 13.058 20.0868 13.0618C20.0898 13.0656 20.0919 13.0701 20.0929 13.0748C20.094 13.0795 20.095 13.0844 20.094 13.0891Z" fill="black"/>
</g>
</g>
<g id="Group_4">
<g id="Group_5">
<path id="Vector_2" d="M27.475 9.37004C27.8834 9.37004 28.2751 9.2078 28.5639 8.91899C28.8527 8.63019 29.015 8.23848 29.015 7.83005C29.015 7.42161 28.8527 7.02991 28.5639 6.7411C28.2751 6.4523 27.8834 6.29005 27.475 6.29005H26.956C26.5922 6.29208 26.2411 6.42349 25.9653 6.66075C25.6896 6.89802 25.5073 7.22566 25.451 7.58505L24.151 3.98005C24.0095 3.58387 23.7495 3.24079 23.4064 2.99733C23.0633 2.75387 22.6537 2.62181 22.233 2.61905H18.533L18.259 1.23605C18.1909 0.888877 18.0049 0.57594 17.7324 0.3503C17.4599 0.124659 17.1178 0.000205545 16.764 -0.00195312H12.237C11.8832 0.000205545 11.5411 0.124659 11.2686 0.3503C10.9961 0.57594 10.8101 0.888877 10.742 1.23605L10.468 2.61905H6.76799C6.34702 2.62105 5.93687 2.75253 5.59321 2.99566C5.24954 3.23878 4.98901 3.58176 4.84699 3.97805L3.54699 7.58305C3.49072 7.22366 3.3084 6.89601 3.03266 6.65875C2.75692 6.42148 2.40575 6.29008 2.04199 6.28805H1.52499C1.11655 6.28805 0.724847 6.4503 0.436041 6.7391C0.147235 7.02791 -0.0150146 7.41961 -0.0150146 7.82804C-0.0150146 8.23648 0.147235 8.62819 0.436041 8.91699C0.724847 9.2058 1.11655 9.36805 1.52499 9.36805H2.04399C2.27571 9.36834 2.50436 9.31495 2.71199 9.21205L1.59999 10.619C1.23647 11.0797 1.03851 11.6492 1.03799 12.236V21.9851C1.03692 22.2531 1.14225 22.5106 1.33086 22.7011C1.51946 22.8916 1.77593 22.9995 2.04399 23.001H3.59999C3.86804 22.9995 4.12451 22.8916 4.31312 22.7011C4.50172 22.5106 4.60705 22.2531 4.60599 21.9851V19.855H24.394V21.9851C24.3932 22.2529 24.4986 22.5102 24.6872 22.7005C24.8758 22.8907 25.1321 22.9985 25.4 23H26.957C27.225 22.9985 27.4815 22.8906 27.6701 22.7001C27.8587 22.5096 27.964 22.2521 27.963 21.984V12.236C27.9622 11.6491 27.7639 11.0796 27.4 10.619L26.288 9.21904C26.4956 9.32194 26.7243 9.37535 26.956 9.37505L27.475 9.37004ZM2.04399 8.38705H1.52499C1.37726 8.38705 1.23558 8.32836 1.13113 8.2239C1.02667 8.11945 0.967985 7.97777 0.967985 7.83005C0.967985 7.68232 1.02667 7.54065 1.13113 7.43619C1.23558 7.33173 1.37726 7.27305 1.52499 7.27305H2.04399C2.19171 7.27305 2.33339 7.33173 2.43784 7.43619C2.5423 7.54065 2.60099 7.68232 2.60099 7.83005C2.60099 7.97777 2.5423 8.11945 2.43784 8.2239C2.33339 8.32836 2.19171 8.38705 2.04399 8.38705ZM11.7 1.43105C11.7245 1.30535 11.7918 1.19203 11.8904 1.11035C11.989 1.02867 12.1129 0.983687 12.241 0.983047H16.767C16.895 0.983687 17.0189 1.02867 17.1176 1.11035C17.2162 1.19203 17.2835 1.30535 17.308 1.43105L17.544 2.62105H11.46L11.7 1.43105ZM3.63299 21.984C3.63326 21.9885 3.63261 21.993 3.63107 21.9973C3.62954 22.0015 3.62715 22.0054 3.62406 22.0087C3.62096 22.012 3.61723 22.0146 3.61309 22.0164C3.60895 22.0181 3.60449 22.0191 3.59999 22.019H2.04399C2.03541 22.0188 2.02727 22.0152 2.02129 22.009C2.01532 22.0029 2.01198 21.9946 2.01199 21.986V19.548C2.33277 19.7488 2.70357 19.8552 3.08199 19.855H3.63299V21.9851V21.984ZM20.242 18.871H8.75799V17.791C8.75798 17.7825 8.76132 17.7742 8.76729 17.7681C8.77327 17.7619 8.78141 17.7583 8.78999 17.758H20.209C20.2176 17.7583 20.2257 17.7619 20.2317 17.7681C20.2376 17.7742 20.241 17.7825 20.241 17.791V18.872L20.242 18.871ZM26.989 21.984C26.989 21.9926 26.9856 22.0009 26.9797 22.007C26.9737 22.0132 26.9656 22.0168 26.957 22.017H25.4C25.3914 22.0168 25.3833 22.0132 25.3773 22.007C25.3713 22.0009 25.368 21.9926 25.368 21.984V19.854H25.919C26.2974 19.8542 26.6682 19.7478 26.989 19.547V21.984ZM26.641 11.232C26.8656 11.5171 26.9881 11.8692 26.989 12.232V17.787C26.99 18.0722 26.878 18.3461 26.6774 18.5487C26.4769 18.7514 26.2041 18.8662 25.919 18.868H21.219V17.791C21.22 17.523 21.1147 17.2655 20.9261 17.075C20.7375 16.8845 20.481 16.7766 20.213 16.775H8.79099C8.52293 16.7766 8.26646 16.8845 8.07786 17.075C7.88925 17.2655 7.78392 17.523 7.78499 17.791V18.872H3.08499C2.79987 18.8702 2.52712 18.7554 2.32654 18.5527C2.12596 18.3501 2.01392 18.0762 2.01499 17.791V12.236C2.01578 11.8732 2.13832 11.521 2.36299 11.236L3.83799 9.37405H23.1C23.2303 9.37405 23.3554 9.32227 23.4475 9.23009C23.5397 9.13792 23.5915 9.0129 23.5915 8.88255C23.5915 8.75219 23.5397 8.62718 23.4475 8.535C23.3554 8.44283 23.2303 8.39105 23.1 8.39105H4.29999L5.76099 4.31905C5.8353 4.11145 5.97171 3.93177 6.15169 3.80439C6.33167 3.67701 6.54649 3.60811 6.76699 3.60705H22.233C22.4535 3.60811 22.6683 3.67701 22.8483 3.80439C23.0283 3.93177 23.1647 4.11145 23.239 4.31905L24.7 8.38705H22.8C22.6696 8.38705 22.5446 8.43883 22.4524 8.531C22.3603 8.62318 22.3085 8.74819 22.3085 8.87855C22.3085 9.0089 22.3603 9.13392 22.4524 9.22609C22.5446 9.31827 22.6696 9.37004 22.8 9.37004H25.161L26.641 11.232ZM26.405 7.83205C26.4045 7.6852 26.4621 7.54412 26.5654 7.43972C26.6687 7.33532 26.8091 7.2761 26.956 7.27505H27.475C27.6227 7.27505 27.7644 7.33373 27.8688 7.43819C27.9733 7.54264 28.032 7.68432 28.032 7.83205C28.032 7.97977 27.9733 8.12145 27.8688 8.22591C27.7644 8.33036 27.6227 8.38905 27.475 8.38905H26.956C26.8827 8.38918 26.8101 8.37479 26.7424 8.34671C26.6746 8.31863 26.6132 8.27741 26.5615 8.22543C26.5098 8.17346 26.4689 8.11176 26.4412 8.0439C26.4135 7.97603 26.3995 7.90335 26.4 7.83005L26.405 7.83205Z" fill="black"/>
</g>
</g>
<g id="Group_6">
<path id="Vector_3" d="M4.89798 11.5541C4.54514 11.5541 4.20022 11.6587 3.90685 11.8547C3.61347 12.0508 3.38481 12.3294 3.24978 12.6554C3.11476 12.9813 3.07943 13.3401 3.14826 13.6861C3.2171 14.0322 3.38701 14.3501 3.63651 14.5995C3.886 14.849 4.20388 15.019 4.54994 15.0878C4.896 15.1566 5.25471 15.1213 5.58069 14.9863C5.90668 14.8512 6.1853 14.6226 6.38133 14.3292C6.57735 14.0358 6.68198 13.6909 6.68198 13.3381C6.68146 12.8651 6.49333 12.4116 6.15888 12.0772C5.82443 11.7427 5.37097 11.5546 4.89798 11.5541ZM4.89798 14.1541C4.73758 14.1541 4.58078 14.1065 4.44742 14.0174C4.31405 13.9283 4.2101 13.8016 4.14872 13.6534C4.08733 13.5053 4.07127 13.3422 4.10257 13.1849C4.13386 13.0276 4.2111 12.883 4.32452 12.7696C4.43794 12.6562 4.58245 12.579 4.73977 12.5477C4.89708 12.5164 5.06015 12.5324 5.20834 12.5938C5.35653 12.6552 5.48319 12.7591 5.5723 12.8925C5.66142 13.0259 5.70899 13.1827 5.70899 13.3431C5.7074 13.5572 5.62129 13.7621 5.4694 13.913C5.31751 14.064 5.11213 14.1488 4.89798 14.1491V14.1541Z" fill="black"/>
</g>
<g id="Group_7">
<path id="Vector_4" d="M24.102 11.5541C23.7492 11.5541 23.4042 11.6587 23.1108 11.8547C22.8175 12.0508 22.5888 12.3294 22.4538 12.6554C22.3188 12.9813 22.2834 13.3401 22.3523 13.6861C22.4211 14.0322 22.591 14.3501 22.8405 14.5995C23.09 14.849 23.4079 15.019 23.7539 15.0878C24.1 15.1566 24.4587 15.1213 24.7847 14.9863C25.1107 14.8512 25.3893 14.6226 25.5853 14.3292C25.7814 14.0358 25.886 13.6909 25.886 13.3381C25.8855 12.8651 25.6973 12.4116 25.3629 12.0772C25.0284 11.7427 24.575 11.5546 24.102 11.5541ZM24.102 14.1541C23.9416 14.1541 23.7848 14.1065 23.6514 14.0174C23.5181 13.9283 23.4141 13.8016 23.3527 13.6534C23.2913 13.5053 23.2753 13.3422 23.3066 13.1849C23.3379 13.0276 23.4151 12.883 23.5285 12.7696C23.642 12.6562 23.7865 12.579 23.9438 12.5477C24.1011 12.5164 24.2642 12.5324 24.4124 12.5938C24.5605 12.6552 24.6872 12.7591 24.7763 12.8925C24.8654 13.0259 24.913 13.1827 24.913 13.3431C24.9114 13.5572 24.8253 13.7621 24.6734 13.913C24.5215 14.064 24.3161 14.1488 24.102 14.1491V14.1541Z" fill="black"/>
</g>
</g>
</g>
<defs>
<clipPath id="clip0_6_120">
<rect width="29" height="23" fill="white"/>
</clipPath>
</defs>
</svg>
