<svg width="30" height="28" viewBox="0 0 30 28" fill="none" xmlns="http://www.w3.org/2000/svg">
<g id="IMAGE" clip-path="url(#clip0_6_110)">
<g id="Group">
<path id="Vector" d="M23.791 16.178H26.116C26.3672 16.1791 26.6085 16.0805 26.7872 15.904C26.9658 15.7274 27.0671 15.4872 27.069 15.236V12.936C27.0656 12.6859 26.9635 12.4472 26.7851 12.272C26.6066 12.0967 26.3661 11.9989 26.116 12H23.791C23.5398 11.999 23.2985 12.0975 23.1198 12.2741C22.9412 12.4507 22.8398 12.6908 22.838 12.942V15.242C22.8414 15.4921 22.9435 15.7308 23.1219 15.9061C23.3004 16.0814 23.5409 16.1791 23.791 16.178ZM23.814 12.961H26.093V15.213H23.814V12.961ZM17.155 16.178H19.48C19.7312 16.1791 19.9725 16.0805 20.1512 15.904C20.3298 15.7274 20.4312 15.4872 20.433 15.236V12.936C20.4296 12.6861 20.3277 12.4476 20.1494 12.2723C19.9712 12.0971 19.731 11.9992 19.481 12H17.155C16.9038 11.999 16.6625 12.0975 16.4838 12.2741C16.3052 12.4507 16.2038 12.6908 16.202 12.942V15.242C16.2054 15.4921 16.3075 15.7308 16.4859 15.9061C16.6644 16.0814 16.9049 16.1791 17.155 16.178ZM17.178 12.961H19.457V15.213H17.178V12.961ZM6.209 12H3.883C3.63182 11.999 3.39047 12.0975 3.21184 12.2741C3.0332 12.4507 2.93185 12.6908 2.93 12.942V15.242C2.93185 15.4932 3.0332 15.7334 3.21184 15.91C3.39047 16.0865 3.63182 16.1851 3.883 16.184H6.208C6.45917 16.1851 6.70053 16.0865 6.87916 15.91C7.0578 15.7334 7.15915 15.4932 7.161 15.242V12.942C7.15915 12.691 7.05794 12.451 6.87952 12.2744C6.7011 12.0979 6.46 11.9992 6.209 12ZM6.186 15.217H3.907V12.961H6.186V15.217ZM17.156 22.151H19.481C19.7322 22.1521 19.9735 22.0535 20.1522 21.877C20.3308 21.7004 20.4321 21.4602 20.434 21.209V18.909C20.4321 18.6578 20.3308 18.4177 20.1522 18.2411C19.9735 18.0645 19.7322 17.966 19.481 17.967H17.155C16.9038 17.966 16.6625 18.0645 16.4838 18.2411C16.3052 18.4177 16.2038 18.6578 16.202 18.909V21.209C16.2049 21.4595 16.3067 21.6987 16.4852 21.8744C16.6638 22.0501 16.9045 22.1481 17.155 22.147L17.156 22.151ZM17.179 18.934H19.458V21.186H17.178L17.179 18.934ZM27.555 2.20502H25.467V1.46702C25.4641 1.07572 25.3061 0.701547 25.0278 0.426543C24.7494 0.15154 24.3733 -0.00184729 23.982 1.67937e-05H23.758C23.3667 -0.00184729 22.9906 0.15154 22.7122 0.426543C22.4339 0.701547 22.2759 1.07572 22.273 1.46702V2.20502H7.727V1.46702C7.72409 1.07572 7.56613 0.701547 7.28775 0.426543C7.00937 0.15154 6.6333 -0.00184729 6.242 1.67937e-05H6.018C5.6267 -0.00184729 5.25062 0.15154 4.97225 0.426543C4.69387 0.701547 4.53591 1.07572 4.533 1.46702V2.20502H2.445C1.80059 2.20182 1.18123 2.45442 0.722843 2.90736C0.264458 3.36031 0.00449482 3.97661 0 4.62102V25.587C0.0044948 26.2306 0.264142 26.8462 0.721964 27.2985C1.17979 27.7509 1.79838 28.0032 2.442 28H27.558C28.2016 28.0032 28.8202 27.7509 29.278 27.2985C29.7359 26.8462 29.9955 26.2306 30 25.587V4.62102C29.9955 3.97661 29.7355 3.36031 29.2772 2.90736C28.8188 2.45442 28.1994 2.20182 27.555 2.20502ZM23.25 1.46702C23.2516 1.33351 23.3059 1.20604 23.401 1.11239C23.4962 1.01873 23.6245 0.96648 23.758 0.967017H23.982C24.1155 0.96648 24.2438 1.01873 24.339 1.11239C24.4341 1.20604 24.4884 1.33351 24.49 1.46702V2.20502H23.25V1.46702ZM5.51 1.46702C5.51158 1.33351 5.56586 1.20604 5.66102 1.11239C5.75617 1.01873 5.88449 0.96648 6.018 0.967017H6.242C6.37551 0.96648 6.50382 1.01873 6.59898 1.11239C6.69413 1.20604 6.74842 1.33351 6.75 1.46702V2.20502H5.51V1.46702ZM29.023 25.587C29.0204 25.9732 28.8646 26.3425 28.59 26.614C28.3153 26.8855 27.9442 27.0369 27.558 27.035H2.442C2.25045 27.0365 2.06049 27.0002 1.88297 26.9282C1.70546 26.8562 1.54388 26.7499 1.40745 26.6154C1.27103 26.4809 1.16244 26.3209 1.0879 26.1444C1.01335 25.968 0.974308 25.7786 0.973 25.587C1.39707 25.9032 1.91204 26.0737 2.441 26.073H22.241C22.8884 26.0753 23.5102 25.8207 23.97 25.365L29.02 20.375L29.023 25.587ZM23.473 24.49C23.5131 24.3298 23.5336 24.1652 23.534 24V20.782C23.5366 20.4885 23.6554 20.208 23.8644 20.0018C24.0734 19.7957 24.3555 19.6807 24.649 19.682H27.909C28.0747 19.6821 28.2398 19.6626 28.401 19.624L23.473 24.49ZM29.023 9.10002H8.215C8.14979 9.09705 8.08465 9.10733 8.02353 9.13024C7.9624 9.15314 7.90655 9.18821 7.85935 9.2333C7.81216 9.2784 7.77459 9.33259 7.74893 9.39262C7.72326 9.45264 7.71003 9.51724 7.71003 9.58252C7.71003 9.6478 7.72326 9.7124 7.74893 9.77242C7.77459 9.83244 7.81216 9.88663 7.85935 9.93173C7.90655 9.97683 7.9624 10.0119 8.02353 10.0348C8.08465 10.0577 8.14979 10.068 8.215 10.065H29.023V17.613C29.0204 17.9065 28.9016 18.1871 28.6926 18.3932C28.4836 18.5994 28.2015 18.7143 27.908 18.713H24.648C24.0967 18.7104 23.5668 18.9265 23.1746 19.314C22.7824 19.7015 22.56 20.2287 22.556 20.78V24C22.5534 24.2935 22.4346 24.5741 22.2256 24.7802C22.0166 24.9864 21.7345 25.1014 21.441 25.1H2.441C2.05489 25.1019 1.68374 24.9508 1.40867 24.6799C1.13359 24.4089 0.976959 24.0401 0.973 23.654V10.066H10.258C10.3232 10.069 10.3883 10.0587 10.4495 10.0358C10.5106 10.0129 10.5664 9.97783 10.6136 9.93273C10.6608 9.88764 10.6984 9.83344 10.7241 9.77342C10.7497 9.7134 10.763 9.6488 10.763 9.58352C10.763 9.51824 10.7497 9.45364 10.7241 9.39362C10.6984 9.3336 10.6608 9.2794 10.6136 9.2343C10.5664 9.18921 10.5106 9.15414 10.4495 9.13124C10.3883 9.10833 10.3232 9.09805 10.258 9.10102H0.973V4.62102C0.974308 4.42907 1.01343 4.23926 1.08812 4.06244C1.16282 3.88562 1.27163 3.72525 1.40833 3.5905C1.54503 3.45574 1.70695 3.34925 1.88482 3.2771C2.0627 3.20496 2.25305 3.16857 2.445 3.17002H4.533V4.58902C4.53591 4.98031 4.69387 5.35449 4.97225 5.62949C5.25062 5.90449 5.6267 6.05788 6.018 6.05602C6.08321 6.05899 6.14835 6.04871 6.20947 6.0258C6.2706 6.00289 6.32645 5.96783 6.37364 5.92273C6.42084 5.87763 6.45841 5.82344 6.48407 5.76342C6.50974 5.7034 6.52297 5.6388 6.52297 5.57352C6.52297 5.50824 6.50974 5.44364 6.48407 5.38362C6.45841 5.32359 6.42084 5.2694 6.37364 5.2243C6.32645 5.17921 6.2706 5.14414 6.20947 5.12124C6.14835 5.09833 6.08321 5.08805 6.018 5.09102C5.88449 5.09155 5.75617 5.0393 5.66102 4.94565C5.56586 4.85199 5.51158 4.72452 5.51 4.59102V3.17002H22.273V4.58902C22.2759 4.98031 22.4339 5.35449 22.7122 5.62949C22.9906 5.90449 23.3667 6.05788 23.758 6.05602C23.8232 6.05899 23.8883 6.04871 23.9495 6.0258C24.0106 6.00289 24.0664 5.96783 24.1136 5.92273C24.1608 5.87763 24.1984 5.82344 24.2241 5.76342C24.2497 5.7034 24.263 5.6388 24.263 5.57352C24.263 5.50824 24.2497 5.44364 24.2241 5.38362C24.1984 5.32359 24.1608 5.2694 24.1136 5.2243C24.0664 5.17921 24.0106 5.14414 23.9495 5.12124C23.8883 5.09833 23.8232 5.08805 23.758 5.09102C23.6245 5.09155 23.4962 5.0393 23.401 4.94565C23.3059 4.85199 23.2516 4.72452 23.25 4.59102V3.17002H27.555C27.942 3.16815 28.3139 3.31989 28.5891 3.59192C28.8643 3.86395 29.0204 4.23406 29.023 4.62102V9.10002ZM6.209 17.965H3.883C3.63182 17.964 3.39047 18.0625 3.21184 18.2391C3.0332 18.4157 2.93185 18.6558 2.93 18.907V21.207C2.93185 21.4582 3.0332 21.6984 3.21184 21.875C3.39047 22.0515 3.63182 22.1501 3.883 22.149H6.208C6.45917 22.1501 6.70053 22.0515 6.87916 21.875C7.0578 21.6984 7.15915 21.4582 7.161 21.207V18.907C7.15915 18.656 7.05794 18.416 6.87952 18.2394C6.7011 18.0629 6.46 17.9642 6.209 17.965ZM6.186 21.182H3.907V18.93H6.186V21.182ZM10.52 16.182H12.845C13.0962 16.1831 13.3375 16.0845 13.5162 15.908C13.6948 15.7314 13.7961 15.4912 13.798 15.24V12.94C13.7956 12.6892 13.694 12.4495 13.5155 12.2734C13.3369 12.0972 13.0958 11.9989 12.845 12H10.519C10.2678 11.999 10.0265 12.0975 9.84784 12.2741C9.6692 12.4507 9.56785 12.6908 9.566 12.942V15.242C9.56942 15.4921 9.67147 15.7308 9.84993 15.9061C10.0284 16.0814 10.2689 16.1791 10.519 16.178L10.52 16.182ZM10.543 12.965H12.822V15.217H10.543V12.965ZM10.52 22.151H12.845C13.0962 22.1521 13.3375 22.0535 13.5162 21.877C13.6948 21.7004 13.7961 21.4602 13.798 21.209V18.909C13.7961 18.6578 13.6948 18.4177 13.5162 18.2411C13.3375 18.0645 13.0962 17.966 12.845 17.967H10.519C10.2678 17.966 10.0265 18.0645 9.84784 18.2411C9.6692 18.4177 9.56785 18.6578 9.566 18.909V21.209C9.5689 21.4595 9.67071 21.6987 9.84923 21.8744C10.0278 22.0501 10.2685 22.1481 10.519 22.147L10.52 22.151ZM10.543 18.934H12.822V21.186H10.543V18.934Z" fill="black"/>
</g>
</g>
<defs>
<clipPath id="clip0_6_110">
<rect width="30" height="28" fill="white"/>
</clipPath>
</defs>
</svg>
