<svg width="29" height="29" viewBox="0 0 29 29" fill="none" xmlns="http://www.w3.org/2000/svg">
<g id="IMAGE" clip-path="url(#clip0_6_137)">
<g id="Group">
<g id="Group_2">
<path id="Vector" d="M21.267 15.4671C20.5152 15.4686 19.7654 15.5429 19.028 15.6891C20.4763 13.2871 21.2498 10.5389 21.267 7.73408C21.2492 5.44885 20.8989 3.17838 20.227 0.994079C20.0982 0.63826 19.8356 0.346773 19.4951 0.18169C19.1546 0.0166064 18.7631 -0.00902894 18.404 0.110243C18.0449 0.229514 17.7465 0.484269 17.5724 0.820256C17.3984 1.15624 17.3623 1.54692 17.472 1.90908C18.0443 3.79866 18.3456 5.75986 18.367 7.73408C18.3061 10.75 17.2293 13.6571 15.311 15.9851C15.034 16.3451 14.728 16.7031 14.411 17.0561C14.341 17.0341 14.271 17.0191 14.201 17.0021C14.035 16.7501 13.875 16.5091 13.721 16.2791C20.246 10.5181 15.959 0.395079 15.914 0.291079C15.8758 0.204602 15.8132 0.131221 15.7337 0.0800284C15.6542 0.0288354 15.5615 0.00208043 15.467 0.00307871C0.870003 0.00307871 0.0330025 13.8401 0.0100025 14.3861C0.00324113 14.4247 -0.000105131 14.4639 2.51641e-06 14.5031V16.4361C0.00035414 16.4808 0.00708873 16.5253 0.0200025 16.5681C0.798029 18.9266 2.09677 21.0797 3.82 22.8681C3.87914 22.9281 3.92155 23.0026 3.943 23.0841L4.69 26.0671C4.7596 26.3509 4.89307 26.6151 5.08023 26.8395C5.26739 27.0639 5.5033 27.2426 5.77 27.3621C7.133 27.9741 10.266 29.0031 15.95 29.0031C22.2 29.0031 25.665 27.7581 26.864 27.2221C27.2283 27.0587 27.5324 26.7857 27.734 26.4411C28.562 25.0163 28.9988 23.398 29 21.7501V18.8501C29 18.7865 28.9874 18.7236 28.9631 18.6649C28.9387 18.6062 28.903 18.5529 28.858 18.5081C26.7861 16.5974 24.085 15.5151 21.267 15.4671ZM28.034 19.0621V20.7691C26.2175 19.3753 24.0341 18.5413 21.751 18.3691C20.2593 18.3988 18.8094 18.8669 17.582 19.7151C17.1923 19.9524 16.7901 20.1683 16.377 20.3621C16.4135 20.1833 16.4329 20.0015 16.435 19.8191C16.4323 19.6241 16.4106 19.4298 16.37 19.2391C17.0687 18.4947 17.7109 17.6992 18.291 16.8591C19.2582 16.5757 20.2612 16.4332 21.269 16.4361C23.7608 16.4964 26.1543 17.4252 28.034 19.0621ZM10.978 18.4491C10.859 18.0931 10.74 17.7071 10.615 17.2681C10.4925 16.7574 10.2603 16.2794 9.93443 15.8676C9.60855 15.4557 9.19687 15.1197 8.728 14.8831C7.089 14.0831 4.611 14.3461 0.967003 15.7261V14.5611C2.25878 13.2953 3.99149 12.5804 5.8 12.5671C9.338 12.5671 10.431 13.1871 12.679 16.4671C12.787 16.6261 12.9 16.7941 13.017 16.9671C12.5875 17.0451 12.1811 17.2188 11.828 17.4754C11.4748 17.7319 11.185 18.0647 10.978 18.4491ZM13.534 17.8841C13.6345 17.884 13.7348 17.892 13.834 17.9081C14.0108 17.9351 14.1831 17.9862 14.346 18.0601C14.4866 18.1235 14.6183 18.2048 14.738 18.3021C15.041 18.5418 15.2664 18.8657 15.386 19.2331C15.4421 19.423 15.4711 19.62 15.472 19.8181C15.4711 20.1977 15.3603 20.569 15.153 20.8871C14.9318 21.2221 14.6117 21.4799 14.2373 21.6248C13.8629 21.7696 13.4526 21.7943 13.0635 21.6953C12.6744 21.5964 12.3258 21.3787 12.0661 21.0726C11.8063 20.7665 11.6483 20.3871 11.614 19.9871C11.614 19.9301 11.606 19.8751 11.606 19.8181C11.606 19.3054 11.8097 18.8137 12.1722 18.4512C12.5347 18.0887 13.0263 17.8851 13.539 17.8851L13.534 17.8841ZM16.077 16.5751C18.127 14.0791 19.2746 10.9644 19.334 7.73508C19.3131 5.65654 18.9952 3.59166 18.39 1.60308C18.3502 1.48095 18.3606 1.34801 18.4188 1.23352C18.477 1.11903 18.5784 1.03236 18.7005 0.992579C18.8226 0.952796 18.9556 0.96316 19.0701 1.02139C19.1845 1.07962 19.2712 1.18095 19.311 1.30308C19.9449 3.38878 20.2779 5.55428 20.3 7.73408C20.2687 10.7568 19.3221 13.6991 17.585 16.1731C17.093 16.8997 16.552 17.5919 15.966 18.2451C15.7976 17.9807 15.5868 17.7459 15.342 17.5501H15.336L15.33 17.5441C15.318 17.5341 15.305 17.5271 15.293 17.5171C15.567 17.2101 15.833 16.8931 16.076 16.5771L16.077 16.5751ZM15.14 0.975079C15.763 2.61108 18.459 10.6971 13.166 15.4841C10.94 12.3461 9.465 11.6031 5.8 11.6031C4.12834 11.6349 2.50361 12.1614 1.131 13.1161C1.695 9.70308 4.2 1.13808 15.14 0.970079V0.975079ZM26.9 25.9481C26.7998 26.1189 26.6488 26.2542 26.468 26.3351C25.324 26.8471 22.012 28.0351 15.948 28.0351C10.448 28.0351 7.456 27.0621 6.166 26.4821C6.03258 26.4226 5.91455 26.3334 5.82095 26.2212C5.72735 26.1091 5.66066 25.977 5.626 25.8351L4.88 22.8521C4.81768 22.6062 4.6918 22.381 4.515 22.1991C3.0148 20.6222 1.84909 18.7582 1.088 16.7191C4.54 15.3831 6.905 15.0661 8.3 15.7501C8.64715 15.9272 8.95103 16.1786 9.19005 16.4864C9.42908 16.7942 9.59738 17.1509 9.683 17.5311C9.90719 18.4488 10.2364 19.3377 10.664 20.1801C10.7342 20.7506 10.9731 21.2872 11.35 21.7212C11.7268 22.1552 12.2246 22.4669 12.7796 22.6165C13.3346 22.7661 13.9216 22.7467 14.4656 22.5608C15.0095 22.3749 15.4856 22.031 15.833 21.5731C16.6236 21.3377 17.3768 20.9913 18.07 20.5441C19.1479 19.7829 20.4287 19.3612 21.748 19.3331C24.489 19.3331 27.302 21.4041 28.022 21.9721C27.9848 23.3701 27.5992 24.7368 26.9 25.9481Z" fill="black"/>
</g>
</g>
</g>
<defs>
<clipPath id="clip0_6_137">
<rect width="29" height="29" fill="white"/>
</clipPath>
</defs>
</svg>
