<svg width="29" height="29" viewBox="0 0 29 29" fill="none" xmlns="http://www.w3.org/2000/svg">
<g id="IMAGE" clip-path="url(#clip0_6_160)">
<g id="Group">
<g id="Group_2">
<path id="Vector" d="M28.889 22.817C27.8271 21.4527 26.9642 19.9447 26.326 18.338C26.175 17.874 26.003 17.249 25.801 16.532L25.771 16.451C24.771 12.86 23.864 9.804 22.865 8.805C21.785 7.736 17.578 6.999 15.812 6.737L15.701 6.727V2.542C15.6992 1.86994 15.432 1.2258 14.9576 0.749734C14.4832 0.273672 13.84 0.00421602 13.168 0H2.533C1.86038 0.00238144 1.21612 0.27125 0.741348 0.747709C0.266576 1.22417 -4.21573e-06 1.86938 0 2.542V21.152C0.00158838 21.8228 0.269125 22.4657 0.743954 22.9396C1.21878 23.4135 1.86215 23.6797 2.533 23.68H13.168C13.4418 23.6801 13.7131 23.6288 13.968 23.529L14.039 23.509L14.089 23.559C14.6796 24.0671 15.3183 24.5166 15.996 24.901C17.6726 25.7745 19.0677 27.1048 20.02 28.738C20.0685 28.8177 20.1366 28.8836 20.2179 28.9294C20.2991 28.9753 20.3907 28.9996 20.484 29C22.2958 28.9795 24.0625 28.4327 25.5692 27.4262C27.0758 26.4197 28.2574 24.9969 28.97 23.331C28.9998 23.2453 29.008 23.1535 28.9939 23.0639C28.9797 22.9742 28.9437 22.8894 28.889 22.817ZM15.701 11.973L18.042 12.911L18.062 12.972C18.173 13.365 18.345 13.93 18.506 14.364L18.526 14.414L18.496 14.464C18.425 14.595 18.365 14.746 18.296 14.908C18.1798 15.2098 18.0237 15.4946 17.832 15.755L17.751 15.866L17.651 15.775C16.831 15.0601 16.1709 14.1803 15.714 13.193L15.704 13.132L15.701 11.973ZM2.654 22.605H2.533C2.34142 22.6061 2.15152 22.5693 1.9742 22.4967C1.79688 22.4242 1.63562 22.3174 1.49969 22.1824C1.36376 22.0474 1.25583 21.8869 1.18209 21.71C1.10835 21.5332 1.07026 21.3436 1.07 21.152V2.542C1.07053 2.15424 1.22487 1.78253 1.49915 1.50844C1.77343 1.23435 2.14524 1.08026 2.533 1.08H2.654V22.605ZM5.318 22.605H3.734V1.08H5.32L5.318 22.605ZM6.398 22.605V1.08H13.169C13.5564 1.08184 13.9275 1.23657 14.2015 1.51054C14.4754 1.7845 14.6302 2.15556 14.632 2.543V10.915L14.4 10.582C13.6 9.422 12.231 7.969 10.979 7.717C10.7114 7.65246 10.4318 7.65754 10.1668 7.73176C9.90172 7.80599 9.66012 7.94688 9.465 8.141C7.921 9.684 8.819 12.341 10.065 14.141C11.0161 15.4453 11.6673 16.9437 11.972 18.529C11.9913 18.7134 12.0013 18.8986 12.002 19.084C12.0156 20.2824 12.4115 21.4452 13.132 22.403L13.283 22.603L6.398 22.605ZM27.81 23.291C27.1775 24.6167 26.1985 25.7468 24.9765 26.5618C23.7545 27.3768 22.335 27.8464 20.868 27.921H20.787L20.747 27.86C19.7086 26.2321 18.266 24.9012 16.56 23.997C15.6842 23.5489 14.9086 22.9277 14.28 22.171C13.5143 21.3045 13.0881 20.1903 13.08 19.034C13.07 18.842 13.06 18.651 13.04 18.434C12.7283 16.6639 12.0173 14.9881 10.961 13.534C9.902 12.001 9.225 9.903 10.224 8.894C10.2958 8.82376 10.386 8.77516 10.4841 8.75376C10.5823 8.73236 10.6845 8.73903 10.779 8.773C11.879 8.995 13.579 10.973 13.998 12.041C14.392 13.009 15.798 16.241 17.62 16.994C17.7015 17.0251 17.7891 17.0368 17.8759 17.0281C17.9627 17.0194 18.0463 16.9906 18.12 16.944C18.6466 16.5387 19.043 15.9881 19.26 15.36C19.341 15.178 19.381 15.078 19.401 15.037L19.391 14.987L19.462 14.947C19.5661 14.8706 19.6403 14.7603 19.6717 14.635C19.7031 14.5098 19.6898 14.3775 19.634 14.261C19.383 13.6424 19.1738 13.0077 19.008 12.361C18.9871 12.2791 18.9468 12.2034 18.8906 12.1402C18.8344 12.0771 18.7639 12.0283 18.685 11.998L15.698 10.808V7.808L15.849 7.828C17.827 8.128 21.379 8.847 22.095 9.553C22.973 10.441 24.073 14.375 24.739 16.725L24.749 16.796C24.961 17.542 25.143 18.188 25.284 18.642C25.898 20.2565 26.7399 21.7749 27.784 23.151L27.834 23.212L27.81 23.291Z" fill="black"/>
</g>
</g>
</g>
<defs>
<clipPath id="clip0_6_160">
<rect width="29" height="29" fill="white"/>
</clipPath>
</defs>
</svg>
