<svg width="29" height="29" viewBox="0 0 29 29" fill="none" xmlns="http://www.w3.org/2000/svg">
<g id="IMAGE" clip-path="url(#clip0_34_552)">
<path id="Union" fill-rule="evenodd" clip-rule="evenodd" d="M10 6C9.44772 6 9 6.44772 9 7V9H6C5.44771 9 5 9.44772 5 10C5 10.3603 4.90519 10.8793 4.72598 11.5065C4.55111 12.1185 4.31425 12.7718 4.07152 13.3786C3.82964 13.9833 3.58699 14.5294 3.40454 14.9247C3.31349 15.122 3.23786 15.2808 3.18539 15.3895C3.15916 15.4438 3.13874 15.4856 3.12511 15.5133L3.11315 15.5375C3.04087 15.6758 3 15.8331 3 16V23C3 23.5523 3.44772 24 4 24H7.17071C7.58254 25.1652 8.69378 26 10 26C11.3062 26 12.4175 25.1652 12.8293 24H19.1707C19.5825 25.1652 20.6938 26 22 26C23.3062 26 24.4175 25.1652 24.8293 24H28C28.5523 24 29 23.5523 29 23V18.8C29 18.4737 28.8408 18.1679 28.5735 17.9808L24.6479 15.2329C24.6221 15.2065 24.5883 15.1719 24.5475 15.1296C24.4426 15.021 24.2916 14.8624 24.1098 14.6655C23.7452 14.2705 23.2618 13.7265 22.7809 13.1253C22.2968 12.5202 21.8321 11.8781 21.4932 11.2851C21.1334 10.6553 21 10.2237 21 10C21 9.44772 20.5523 9 20 9H17V7C17 6.44772 16.5523 6 16 6H10ZM12.8293 22H19.1707C19.5825 20.8348 20.6938 20 22 20C23.3062 20 24.4175 20.8348 24.8293 22H27V19.3207L23.6848 17H5V22H7.17071C7.58254 20.8348 8.69378 20 10 20C11.3062 20 12.4175 20.8348 12.8293 22ZM15 9H11V8H15V9ZM12 15H5.56188C5.67908 14.7298 5.80369 14.4334 5.92848 14.1214C6.18575 13.4782 6.44889 12.7565 6.64902 12.056C6.74794 11.7098 6.83649 11.3519 6.89991 11H12V15ZM14 15H21.7348C21.5664 14.8016 21.3929 14.5919 21.2191 14.3747C20.7032 13.7298 20.1679 12.9969 19.7568 12.2774C19.5326 11.8851 19.3162 11.4481 19.1727 11H14V15ZM22 22C21.4477 22 21 22.4477 21 23C21 23.5523 21.4477 24 22 24C22.5523 24 23 23.5523 23 23C23 22.4477 22.5523 22 22 22ZM9 23C9 22.4477 9.44772 22 10 22C10.5523 22 11 22.4477 11 23C11 23.5523 10.5523 24 10 24C9.44772 24 9 23.5523 9 23Z" fill="black" stroke="white"/>
</g>
<defs>
<clipPath id="clip0_34_552">
<rect width="29" height="29" fill="white"/>
</clipPath>
</defs>
</svg>
