<svg width="30" height="26" viewBox="0 0 30 26" fill="none" xmlns="http://www.w3.org/2000/svg">
<g id="IMAGE" clip-path="url(#clip0_6_103)">
<g id="Group">
<g id="Group_2">
<g id="Group_3">
<path id="Vector" d="M28.678 10.8559H28.2386V4.9986C28.2386 4.27909 27.9461 3.58895 27.425 3.07954C26.904 2.57012 26.1971 2.28301 25.4593 2.28117H13.3902L5.24746 0.0159912H5.24034H5.23322H5.21898H5.19661H5.17627H5.15288H5.08983H5.06441H5.04814L5.02271 0.0209492H5.00746L4.98203 0.0288827L4.9678 0.0338426L4.94237 0.0437604L4.92915 0.0497096L4.90475 0.062603L4.89254 0.0695452L4.86915 0.0844211L4.85797 0.0933477L4.83661 0.110208L4.82542 0.120126L4.8061 0.137977L4.79492 0.149877L4.77864 0.168722L4.76746 0.183598L4.75424 0.202442L4.74407 0.219302L4.73288 0.238145L4.72373 0.25798L4.71559 0.277816L4.70847 0.298643V0.312527V0.31947V0.326412L4.19797 2.28117H2.78339C2.04649 2.28195 1.33992 2.56738 0.818278 3.07498C0.29664 3.58258 0.00242003 4.27103 0 4.98967C0 4.98967 0 4.99562 0 4.9986V19.8552C0 19.9688 0.0462856 20.0778 0.128674 20.1581C0.211063 20.2385 0.322807 20.2836 0.439322 20.2836C0.555838 20.2836 0.667581 20.2385 0.74997 20.1581C0.832359 20.0778 0.878644 19.9688 0.878644 19.8552V6.97518C1.3936 7.44939 2.07513 7.71341 2.78339 7.71305H25.4614C25.966 7.7141 26.4497 7.9102 26.8063 8.25839C27.163 8.60658 27.3635 9.07846 27.3641 9.57061V12.5707H22.5285H22.4908L22.4492 12.5766H22.4431L22.4095 12.5846H22.4024L22.3729 12.5955H22.3617L22.3383 12.6064L22.3231 12.6133L22.3058 12.6233L22.2864 12.6352L22.2742 12.6441L22.2519 12.6599L22.2427 12.6679L22.2203 12.6877L22.2081 12.7006L22.1908 12.7185C22.182 12.729 22.1736 12.7403 22.1654 12.7522L19.8264 16.1807C19.8103 16.2044 19.7967 16.2297 19.7858 16.2561C19.7858 16.266 19.7786 16.2759 19.7746 16.2858V16.2948C19.7746 16.3057 19.7685 16.3156 19.7664 16.3265V16.3344C19.7664 16.3443 19.7664 16.3533 19.7664 16.3632C19.7664 16.3731 19.7664 16.3711 19.7664 16.3761C19.7664 16.381 19.7664 16.3919 19.7664 16.3999C19.7664 16.4078 19.7664 16.4118 19.7664 16.4177C19.7664 16.4237 19.7664 16.4296 19.7664 16.4356C19.7664 16.4415 19.7664 16.4515 19.7664 16.4604C19.7664 16.4693 19.7664 16.4683 19.7664 16.4723C19.7664 16.4762 19.7664 16.4921 19.7664 16.502V16.51C19.7664 16.5209 19.7664 16.5318 19.7746 16.5417V16.5506C19.7746 16.5605 19.7817 16.5705 19.7858 16.5804C19.797 16.6068 19.811 16.6321 19.8275 16.6558L22.1664 20.0843C22.1758 20.098 22.186 20.1113 22.1969 20.1239L22.2081 20.1358L22.2315 20.1587L22.2458 20.1715L22.2722 20.1924L22.2844 20.2013C22.2975 20.2099 22.3111 20.2179 22.3251 20.2251L22.3363 20.2301L22.3708 20.2449L22.3851 20.2499L22.4197 20.2598H22.4339L22.4705 20.2668H22.4837H22.5295H27.3671V23.2668C27.3666 23.7593 27.1657 24.2315 26.8086 24.5797C26.4515 24.928 25.9674 25.1239 25.4624 25.1244H2.78339C2.28171 25.1236 1.80055 24.9301 1.4442 24.5857C1.08785 24.2414 0.885012 23.7739 0.879661 23.2847C0.879661 23.2847 0.879661 23.2847 0.879661 23.2777V17.6029C0.879661 17.4893 0.833375 17.3803 0.750987 17.2999C0.668598 17.2196 0.556854 17.1744 0.440339 17.1744C0.323824 17.1744 0.21208 17.2196 0.129691 17.2999C0.0473025 17.3803 0.00101695 17.4893 0.00101695 17.6029V23.2847C0.00101695 23.2847 0.00101695 23.2936 0.00101695 23.2976C0.00531105 24.0148 0.300219 24.7014 0.821434 25.2074C1.34265 25.7135 2.0479 25.9981 2.78339 25.9991H25.4614C26.1991 25.9983 26.9065 25.7122 27.4283 25.2036C27.95 24.6949 28.2437 24.0052 28.2447 23.2857V20.2846H28.678C29.0286 20.2846 29.3649 20.1488 29.6128 19.907C29.8607 19.6652 30 19.3373 30 18.9953V12.1413C29.9989 11.8 29.8592 11.4731 29.6114 11.2322C29.3635 10.9912 29.0279 10.8559 28.678 10.8559ZM5.44373 0.96213L13.198 3.12318L18.3946 4.57115H4.5183L5.44373 0.96213ZM27.3641 7.59404C26.8494 7.12006 26.1682 6.85605 25.4603 6.85616H2.78339C2.52962 6.86188 2.27724 6.81808 2.04107 6.72732C1.80491 6.63657 1.58973 6.50069 1.40817 6.32768C1.22662 6.15467 1.08236 5.94801 0.983866 5.71985C0.885373 5.4917 0.834635 5.24664 0.834635 4.99909C0.834635 4.75154 0.885373 4.50649 0.983866 4.27833C1.08236 4.05017 1.22662 3.84352 1.40817 3.67051C1.58973 3.4975 1.80491 3.36162 2.04107 3.27086C2.27724 3.18011 2.52962 3.1363 2.78339 3.14202H3.97831L3.6122 4.57115H2.78339C2.7257 4.57115 2.66857 4.58223 2.61527 4.60376C2.56197 4.62529 2.51354 4.65685 2.47274 4.69664C2.43195 4.73642 2.39959 4.78365 2.37751 4.83563C2.35543 4.88761 2.34407 4.94333 2.34407 4.99959C2.34407 5.05585 2.35543 5.11156 2.37751 5.16354C2.39959 5.21552 2.43195 5.26276 2.47274 5.30254C2.51354 5.34233 2.56197 5.37389 2.61527 5.39542C2.66857 5.41695 2.7257 5.42803 2.78339 5.42803H24.8725C24.9302 5.42803 24.9874 5.41695 25.0407 5.39542C25.094 5.37389 25.1424 5.34233 25.1832 5.30254C25.224 5.26276 25.2563 5.21552 25.2784 5.16354C25.3005 5.11156 25.3119 5.05585 25.3119 4.99959C25.3119 4.94333 25.3005 4.88761 25.2784 4.83563C25.2563 4.78365 25.224 4.73642 25.1832 4.69664C25.1424 4.65685 25.094 4.62529 25.0407 4.60376C24.9874 4.58223 24.9302 4.57115 24.8725 4.57115H21.5949L16.4664 3.14202H25.4593C25.9643 3.14254 26.4485 3.33842 26.8056 3.68667C27.1627 4.03492 27.3635 4.50709 27.3641 4.99959V7.59404ZM29.1214 18.9993C29.1214 19.1129 29.0751 19.2219 28.9927 19.3022C28.9103 19.3826 28.7985 19.4277 28.682 19.4277H22.7644L20.7132 16.4276L22.7644 13.4276H28.7003C28.8438 13.4257 28.9861 13.4009 29.1214 13.3542V18.9993ZM28.678 12.5697H28.2386V11.7128H28.678C28.7945 11.7128 28.9062 11.758 28.9886 11.8383C29.071 11.9187 29.1173 12.0276 29.1173 12.1413C29.1173 12.2549 29.071 12.3639 28.9886 12.4442C28.9062 12.5246 28.7945 12.5697 28.678 12.5697Z" fill="black"/>
</g>
</g>
<g id="Group_4">
<path id="Vector_2" d="M24.2868 14.8566C23.968 14.8564 23.6562 14.9484 23.391 15.121C23.1258 15.2936 22.9191 15.539 22.7969 15.8263C22.6748 16.1135 22.6427 16.4296 22.7048 16.7346C22.7668 17.0395 22.9203 17.3198 23.1456 17.5397C23.371 17.7596 23.6582 17.9094 23.9709 17.9702C24.2836 18.0309 24.6078 17.9998 24.9024 17.8809C25.197 17.7619 25.4488 17.5604 25.6259 17.3019C25.8031 17.0434 25.8976 16.7394 25.8976 16.4285C25.8974 16.0118 25.7276 15.6123 25.4256 15.3176C25.1236 15.0229 24.714 14.8571 24.2868 14.8566ZM24.2868 17.1376C24.142 17.1376 24.0004 17.0957 23.88 17.0173C23.7596 16.9388 23.6658 16.8273 23.6103 16.6968C23.5549 16.5663 23.5404 16.4227 23.5687 16.2842C23.5969 16.1457 23.6666 16.0185 23.769 15.9186C23.8714 15.8187 24.0019 15.7507 24.1439 15.7232C24.286 15.6956 24.4332 15.7098 24.567 15.7638C24.7008 15.8179 24.8152 15.9094 24.8956 16.0268C24.9761 16.1443 25.019 16.2823 25.019 16.4235C25.0198 16.5179 25.0015 16.6114 24.965 16.6988C24.9286 16.7862 24.8748 16.8657 24.8068 16.9327C24.7387 16.9997 24.6577 17.0529 24.5685 17.0893C24.4792 17.1256 24.3835 17.1444 24.2868 17.1445V17.1376Z" fill="black"/>
</g>
</g>
</g>
<defs>
<clipPath id="clip0_6_103">
<rect width="30" height="26" fill="white"/>
</clipPath>
</defs>
</svg>
