<svg width="26" height="29" viewBox="0 0 26 29" fill="none" xmlns="http://www.w3.org/2000/svg">
<g id="IMAGE" clip-path="url(#clip0_6_155)">
<g id="Group">
<g id="Group_2">
<g id="Group_3">
<path id="Vector" d="M24.037 21.733C23.598 21.0319 23.0926 20.3745 22.528 19.77C21.9623 19.1626 21.3398 18.6108 20.669 18.122L20.66 18.111C20.6482 18.1013 20.6358 18.0923 20.623 18.084L20.614 18.078C20.2341 17.8038 19.8399 17.5501 19.433 17.318L19.283 17.233L19.345 17.072C19.6446 16.1879 19.8585 15.2771 19.984 14.352C20.012 14.185 20.053 13.959 20.1 13.697L20.107 13.658C20.261 12.813 20.471 11.658 20.579 10.644V10.633L20.946 8.42102L20.976 8.38102C21.39 7.83402 22.697 5.96202 22.153 4.84602C21.9903 4.57921 21.7536 4.36542 21.4717 4.23067C21.1898 4.09591 20.8748 4.04601 20.565 4.08702C19.301 4.08702 18.388 3.23802 17.33 2.25502C16.191 1.19702 14.901 -0.000976562 12.999 -0.000976562C11.097 -0.000976562 9.80597 1.19902 8.66797 2.25502C7.60997 3.23802 6.69595 4.08702 5.43195 4.08702C5.12217 4.04601 4.80721 4.09591 4.52527 4.23067C4.24334 4.36542 4.00665 4.57921 3.844 4.84602C3.301 5.96202 4.608 7.83402 5.021 8.38102L5.05097 8.42102L5.41895 10.643C5.51895 11.677 5.72998 12.806 5.88398 13.631C5.93798 13.919 5.98398 14.166 6.01398 14.352C6.14165 15.2766 6.35798 16.1868 6.65998 17.07L6.72199 17.231L6.57197 17.316C6.16504 17.5481 5.77085 17.8018 5.391 18.076L5.38196 18.082C5.36896 18.091 5.35698 18.099 5.34498 18.109L5.336 18.115C3.98889 19.0932 2.84266 20.3215 1.95997 21.733C0.674933 23.7887 -0.00536753 26.1647 -0.00304584 28.589C-0.00278104 28.6981 0.0407506 28.8027 0.117987 28.8797C0.195223 28.9568 0.299906 29 0.409003 29H25.584C25.6381 29.0002 25.6917 28.9896 25.7417 28.969C25.7917 28.9485 25.8373 28.9182 25.8756 28.8801C25.914 28.8419 25.9444 28.7965 25.9652 28.7466C25.986 28.6967 25.9968 28.6431 25.997 28.589C26 26.165 25.3208 23.7891 24.037 21.733ZM19.86 18.553L19.96 18.622L19.56 21.807H16.941L18.909 17.97L19.093 18.076C19.36 18.226 19.615 18.386 19.86 18.552V18.553ZM14.86 24.053L14.433 20.605L14.6039 20.561C15.2719 20.3836 15.913 20.1172 16.51 19.769L16.542 19.749L16.677 19.659L17.34 19.219L14.86 24.053ZM5.81 7.71202L5.73298 7.73502L5.59296 7.77702L5.50898 7.65802C5.04498 6.99602 4.32695 5.73502 4.58295 5.20902C4.70195 4.96502 5.10896 4.90902 5.42896 4.90902C7.01696 4.90902 8.14095 3.86602 9.22895 2.85602C10.3549 1.81002 11.419 0.821024 12.997 0.821024C14.575 0.821024 15.639 1.81002 16.765 2.85602C17.851 3.86602 18.974 4.90902 20.565 4.90902C20.886 4.90902 21.293 4.96002 21.411 5.20902C21.668 5.73502 20.95 6.99602 20.485 7.65802L20.401 7.77702L20.262 7.73502L20.185 7.71202L20.06 7.67002C17.7689 7.00446 15.3903 6.68956 13.0049 6.73602C10.6196 6.68947 8.241 7.00437 5.94996 7.67002L5.81 7.71202ZM5.904 8.54002L6.16401 8.46702C8.38291 7.82413 10.6863 7.5207 12.996 7.56702C15.3054 7.52034 17.6085 7.82378 19.827 8.46702L20.087 8.53902L19.834 10.063L19.618 10.004C17.4593 9.42383 15.2299 9.14949 12.995 9.18902C10.7601 9.14945 8.53061 9.42379 6.37195 10.004L6.15595 10.063L5.904 8.54002ZM19.015 10.685L18.362 10.921C16.6395 11.534 14.8233 11.8423 12.995 11.832C11.167 11.8422 9.35118 11.5339 7.62897 10.921L6.97596 10.685L7.65497 10.536C9.4111 10.1688 11.202 9.99376 12.996 10.014C14.79 9.99374 16.5809 10.1688 18.337 10.536L19.015 10.685ZM6.693 13.485C6.593 12.958 6.47399 12.305 6.37299 11.639L6.31995 11.286L6.64997 11.424C8.66306 12.2479 10.8188 12.6669 12.994 12.657C15.167 12.667 17.3207 12.2487 19.332 11.426L19.663 11.288L19.609 11.642C19.509 12.315 19.386 12.98 19.288 13.515V13.526C19.238 13.803 19.194 14.042 19.164 14.226C18.652 17.331 18.325 17.635 16.864 18.562C16.637 18.706 16.38 18.869 16.096 19.062L16.083 19.07C15.1495 19.6301 14.0845 19.9333 12.996 19.949C11.9078 19.9336 10.843 19.6303 9.90998 19.07L9.89698 19.063C9.60798 18.863 9.34196 18.698 9.12696 18.563C7.66596 17.636 7.33897 17.331 6.82697 14.226C6.79797 14.022 6.749 13.759 6.698 13.482L6.693 13.485ZM11.558 20.606L11.131 24.054L8.65998 19.218L9.30097 19.643L9.456 19.743L9.48701 19.763C10.0844 20.1111 10.7258 20.3775 11.394 20.555L11.558 20.606ZM6.13599 18.556C6.37999 18.391 6.63601 18.229 6.90101 18.077L7.08497 17.971L9.05298 21.808H6.43397L6.034 18.623L6.13599 18.556ZM0.825995 28.181L0.836981 27.97C0.916759 26.3334 1.32985 24.7304 2.05097 23.259C2.76264 21.8009 3.76202 20.5018 4.98896 19.44L5.27399 19.192L5.50898 21.069L5.78596 22.522C5.86263 22.5947 5.9643 22.6352 6.06995 22.635H8.83497L6.76301 25.072C6.69555 25.1518 6.66088 25.2542 6.66608 25.3585C6.67128 25.4629 6.71591 25.5614 6.79096 25.634L9.43799 28.185L0.825995 28.181ZM10.626 28.181L7.64197 25.306L9.64197 22.955L12.323 28.181H10.626ZM11.802 25.36L12.374 20.743L12.565 20.756C12.853 20.7764 13.142 20.7764 13.43 20.756L13.621 20.743L14.193 25.36L12.998 27.689L11.802 25.36ZM13.671 28.181L16.352 22.956L18.352 25.306L15.368 28.181H13.671ZM16.555 28.181L19.202 25.63C19.277 25.5574 19.3217 25.4589 19.3268 25.3545C19.332 25.2502 19.2974 25.1478 19.23 25.068L17.16 22.627H19.925C20.0254 22.6271 20.1224 22.5906 20.1979 22.5244C20.2733 22.4581 20.3221 22.3666 20.335 22.267L20.721 19.184L21.006 19.432C22.2328 20.4939 23.2322 21.7929 23.944 23.251C24.6667 24.7247 25.0805 26.3306 25.16 27.97L25.171 28.181H16.555Z" fill="black"/>
</g>
</g>
</g>
</g>
<defs>
<clipPath id="clip0_6_155">
<rect width="26" height="29" fill="white"/>
</clipPath>
</defs>
</svg>
