<svg width="26" height="29" viewBox="0 0 26 29" fill="none" xmlns="http://www.w3.org/2000/svg">
<g id="IMAGE" clip-path="url(#clip0_34_543)">
<g id="Union">
<path d="M4 12.5C3.44772 12.5 3 12.9477 3 13.5V16.5C3 17.0523 3.44772 17.5 4 17.5C4.55228 17.5 5 17.0523 5 16.5V14.5H7C7.55228 14.5 8 14.0523 8 13.5C8 12.9477 7.55228 12.5 7 12.5H4Z" fill="black"/>
<path d="M23 23.5C23 24.0523 22.5523 24.5 22 24.5H19C18.4477 24.5 18 24.0523 18 23.5C18 22.9477 18.4477 22.5 19 22.5H21V20.5C21 19.9477 21.4477 19.5 22 19.5C22.5523 19.5 23 19.9477 23 20.5V23.5Z" fill="black"/>
<path fill-rule="evenodd" clip-rule="evenodd" d="M19.4405 1.60224C19.7132 1.73604 19.9103 1.98654 19.9762 2.28307L20.7425 5.73169L21.8039 5.51942C22.3273 5.41473 22.8407 5.7396 22.9701 6.25745L23.7808 9.5H25C25.5523 9.5 26 9.94771 26 10.5V26.5C26 27.0523 25.5523 27.5 25 27.5H1C0.447715 27.5 0 27.0523 0 26.5V10.5C0 9.94771 0.447715 9.5 1 9.5H1.77645L18.5742 1.59518C18.8491 1.46584 19.1678 1.46844 19.4405 1.60224ZM18.2949 3.93699L18.7809 6.12401L9.85324 7.90955L18.2949 3.93699ZM21.7193 9.5L21.2611 7.66758L12.099 9.5H21.7193ZM2 25.5V11.5H24V25.5H2Z" fill="black"/>
<path d="M4 12.5C3.44772 12.5 3 12.9477 3 13.5V16.5C3 17.0523 3.44772 17.5 4 17.5C4.55228 17.5 5 17.0523 5 16.5V14.5H7C7.55228 14.5 8 14.0523 8 13.5C8 12.9477 7.55228 12.5 7 12.5H4Z" stroke="white" stroke-linecap="round"/>
<path d="M23 23.5C23 24.0523 22.5523 24.5 22 24.5H19C18.4477 24.5 18 24.0523 18 23.5C18 22.9477 18.4477 22.5 19 22.5H21V20.5C21 19.9477 21.4477 19.5 22 19.5C22.5523 19.5 23 19.9477 23 20.5V23.5Z" stroke="white" stroke-linecap="round"/>
<path fill-rule="evenodd" clip-rule="evenodd" d="M19.4405 1.60224C19.7132 1.73604 19.9103 1.98654 19.9762 2.28307L20.7425 5.73169L21.8039 5.51942C22.3273 5.41473 22.8407 5.7396 22.9701 6.25745L23.7808 9.5H25C25.5523 9.5 26 9.94771 26 10.5V26.5C26 27.0523 25.5523 27.5 25 27.5H1C0.447715 27.5 0 27.0523 0 26.5V10.5C0 9.94771 0.447715 9.5 1 9.5H1.77645L18.5742 1.59518C18.8491 1.46584 19.1678 1.46844 19.4405 1.60224ZM18.2949 3.93699L18.7809 6.12401L9.85324 7.90955L18.2949 3.93699ZM21.7193 9.5L21.2611 7.66758L12.099 9.5H21.7193ZM2 25.5V11.5H24V25.5H2Z" stroke="white" stroke-linecap="round"/>
</g>
<circle id="Ellipse 1" cx="12.625" cy="18.5" r="3.375" stroke="black"/>
</g>
<defs>
<clipPath id="clip0_34_543">
<rect width="26" height="29" fill="white"/>
</clipPath>
</defs>
</svg>
