<svg width="30" height="30" viewBox="0 0 30 30" fill="none" xmlns="http://www.w3.org/2000/svg">
<g id="IMAGE" clip-path="url(#clip0_6_113)">
<g id="Group">
<g id="Group_2">
<path id="Vector" d="M21.019 12.303C21.1374 12.3918 21.2858 12.4311 21.4327 12.4124C21.5796 12.3937 21.7135 12.3187 21.806 12.203L26.362 6.50304C26.4527 6.38468 26.4934 6.23548 26.4754 6.08744C26.4574 5.9394 26.3821 5.8043 26.2657 5.71114C26.1492 5.61798 26.0009 5.57418 25.8525 5.58911C25.7041 5.60405 25.5675 5.67654 25.472 5.79104L21.2569 11.056L19.424 9.67803C19.3645 9.6287 19.2957 9.59196 19.2217 9.57004C19.1476 9.54812 19.0698 9.54148 18.9931 9.55051C18.9164 9.55955 18.8424 9.58408 18.7755 9.62261C18.7085 9.66115 18.6501 9.71288 18.6038 9.77467C18.5575 9.83647 18.5242 9.90704 18.506 9.98209C18.4877 10.0571 18.485 10.1351 18.4978 10.2113C18.5106 10.2874 18.5388 10.3602 18.5806 10.4251C18.6224 10.4901 18.6769 10.5458 18.7409 10.589L21.019 12.303Z" fill="black"/>
<path id="Vector_2" d="M1 26.498H1.5V28.498C1.5 28.8958 1.65804 29.2774 1.93934 29.5587C2.22064 29.84 2.60218 29.998 3 29.998H6C6.39782 29.998 6.77936 29.84 7.06066 29.5587C7.34196 29.2774 7.5 28.8958 7.5 28.498V26.498H19.5V28.498C19.5 28.8958 19.658 29.2774 19.9393 29.5587C20.2206 29.84 20.6022 29.998 21 29.998H24C24.3978 29.998 24.7794 29.84 25.0607 29.5587C25.342 29.2774 25.5 28.8958 25.5 28.498V26.498H26C26.2652 26.498 26.5196 26.3927 26.7071 26.2051C26.8946 26.0176 27 25.7632 27 25.498V17.998C27.001 17.64 26.9243 17.286 26.7751 16.9606C26.6259 16.6351 26.4079 16.3459 26.136 16.113L27.856 14.889C28.5164 14.4199 29.0554 13.8001 29.4283 13.0809C29.8012 12.3618 29.9972 11.5641 30 10.754V3.52401C30.0001 3.42659 29.9718 3.33126 29.9185 3.24972C29.8652 3.16817 29.7893 3.10398 29.7 3.06501L22.7 0.04101C22.6369 0.0134784 22.5688 -0.000732422 22.5 -0.000732422C22.4312 -0.000732422 22.3631 0.0134784 22.3 0.04101L15.3 3.06501C15.2107 3.10398 15.1348 3.16817 15.0815 3.24972C15.0282 3.33126 14.9999 3.42659 15 3.52401V5.49801H7.435C6.91749 5.49833 6.41284 5.65924 5.99067 5.95854C5.56849 6.25784 5.24961 6.68078 5.078 7.16901L2.133 15.537C1.54207 15.6247 1.00207 15.9211 0.6108 16.3725C0.219528 16.824 0.00284835 17.4006 0 17.998L0 25.498C0 25.7632 0.105357 26.0176 0.292893 26.2051C0.48043 26.3927 0.734784 26.498 1 26.498ZM6.5 28.498C6.5 28.6306 6.44732 28.7578 6.35355 28.8516C6.25979 28.9453 6.13261 28.998 6 28.998H3C2.86739 28.998 2.74021 28.9453 2.64645 28.8516C2.55268 28.7578 2.5 28.6306 2.5 28.498V26.498H6.5V28.498ZM24.5 28.498C24.5 28.6306 24.4473 28.7578 24.3536 28.8516C24.2598 28.9453 24.1326 28.998 24 28.998H21C20.8674 28.998 20.7402 28.9453 20.6464 28.8516C20.5527 28.7578 20.5 28.6306 20.5 28.498V26.498H24.5V28.498ZM16 3.85301L22.5 1.04501L29 3.85301V10.753C28.9977 11.404 28.84 12.0449 28.5402 12.6227C28.2403 13.2005 27.8069 13.6984 27.276 14.075L22.501 17.475L17.726 14.075C17.1948 13.6987 16.7611 13.2011 16.4609 12.6235C16.1608 12.0459 16.0027 11.405 16 10.754V3.85301ZM23.5 18.498C23.6326 18.498 23.7598 18.5507 23.8536 18.6445C23.9473 18.7382 24 18.8654 24 18.998V19.998C24 20.1306 23.9473 20.2578 23.8536 20.3516C23.7598 20.4453 23.6326 20.498 23.5 20.498H20.5C20.3674 20.498 20.2402 20.4453 20.1464 20.3516C20.0527 20.2578 20 20.1306 20 19.998C20 19.6002 20.158 19.2187 20.4393 18.9374C20.7206 18.656 21.1022 18.498 21.5 18.498H23.5ZM15 8.49801V9.49801V8.49801ZM15 10.498V10.752C15.0027 11.5622 15.1986 12.3601 15.5715 13.0795C15.9444 13.7988 16.4835 14.4188 17.144 14.888L18 15.498H3.206L6.021 7.49801C6.12433 7.20575 6.31566 6.95269 6.56869 6.77362C6.82172 6.59454 7.12402 6.49826 7.434 6.49801H15V10.498ZM2.5 25.498H1V17.998C1 17.6002 1.15804 17.2187 1.43934 16.9374C1.72064 16.656 2.10218 16.498 2.5 16.498H19.4L20.911 17.574C20.3671 17.7059 19.8832 18.0164 19.5367 18.4559C19.1903 18.8953 19.0013 19.4384 19 19.998C19 20.3958 19.158 20.7774 19.4393 21.0587C19.7206 21.34 20.1022 21.498 20.5 21.498H23.5C23.8978 21.498 24.2794 21.34 24.5607 21.0587C24.842 20.7774 25 20.3958 25 19.998V18.998C24.9991 18.6963 24.9071 18.4018 24.7362 18.1531C24.5653 17.9044 24.3234 17.713 24.042 17.604L25.28 16.723C25.5004 16.8548 25.6826 17.0416 25.8089 17.2652C25.9351 17.4887 26.001 17.7413 26 17.998V25.498H2.5Z" fill="black"/>
<path id="Vector_3" d="M3.5 21.499H6.5C6.89782 21.499 7.27936 21.341 7.56066 21.0597C7.84197 20.7784 8 20.3968 8 19.999C8 19.336 7.73661 18.7001 7.26777 18.2313C6.79893 17.7624 6.16304 17.499 5.5 17.499H3.5C3.10218 17.499 2.72064 17.6571 2.43934 17.9384C2.15803 18.2197 2 18.6012 2 18.999V19.999C2 20.3968 2.15803 20.7784 2.43934 21.0597C2.72064 21.341 3.10218 21.499 3.5 21.499ZM3 18.999C3 18.8664 3.05268 18.7392 3.14645 18.6455C3.24021 18.5517 3.36739 18.499 3.5 18.499H5.5C5.89782 18.499 6.27936 18.6571 6.56066 18.9384C6.84197 19.2197 7 19.6012 7 19.999C7 20.1316 6.94732 20.2588 6.85355 20.3526C6.75979 20.4463 6.63261 20.499 6.5 20.499H3.5C3.36739 20.499 3.24021 20.4463 3.14645 20.3526C3.05268 20.2588 3 20.1316 3 19.999V18.999Z" fill="black"/>
<path id="Vector_4" d="M10 24.499H17C17.2652 24.499 17.5196 24.3937 17.7071 24.2061C17.8946 24.0186 18 23.7642 18 23.499V21.499C18 21.2338 17.8946 20.9794 17.7071 20.7919C17.5196 20.6044 17.2652 20.499 17 20.499H10C9.73478 20.499 9.48043 20.6044 9.29289 20.7919C9.10536 20.9794 9 21.2338 9 21.499V23.499C9 23.7642 9.10536 24.0186 9.29289 24.2061C9.48043 24.3937 9.73478 24.499 10 24.499ZM10 21.499H17V23.499H10V21.499Z" fill="black"/>
</g>
</g>
</g>
<defs>
<clipPath id="clip0_6_113">
<rect width="29.999" height="29.999" fill="white"/>
</clipPath>
</defs>
</svg>
