<svg width="133" height="71" viewBox="0 0 133 71" fill="none" xmlns="http://www.w3.org/2000/svg">
<g id="IMAGE" clip-path="url(#clip0_22_22)">
<g id="Group">
<g id="Group_2">
<path id="Vector" d="M66.5 0.5C30.0473 0.5 0.5 16.1686 0.5 35.5C0.5 54.8314 30.0473 70.5 66.5 70.5C102.953 70.5 132.5 54.8295 132.5 35.5C132.5 16.1705 102.953 0.5 66.5 0.5ZM66.7772 62.4897C33.7319 62.4897 6.94726 50.4819 6.94726 35.6722C6.94726 20.8624 33.7244 8.8527 66.7772 8.8527C99.83 8.8527 126.611 20.8605 126.611 35.6722C126.611 50.4838 99.8243 62.4897 66.7772 62.4897Z" fill="#DA1920"/>
<path id="Vector_2" d="M87.4729 23.2764C87.4729 22.898 86.8186 22.5669 86.8186 22.5669H86.1944C86.1593 22.5671 86.1246 22.5604 86.0921 22.5472C86.0596 22.5339 86.0301 22.5142 86.0052 22.4894C85.9803 22.4647 85.9605 22.4352 85.9471 22.4027C85.9336 22.3702 85.9266 22.3354 85.9266 22.3002V18.9988C85.9264 18.9636 85.9331 18.9287 85.9463 18.8961C85.9596 18.8636 85.9791 18.8339 86.0039 18.809C86.0286 18.784 86.058 18.7642 86.0904 18.7506C86.1227 18.7371 86.1574 18.7301 86.1925 18.7301L98.1989 18.7207C98.559 18.7207 98.9023 18.8001 99.0229 19.1899C99.0229 19.1899 109.47 51.4429 109.47 51.5015C109.473 51.5801 109.46 51.6584 109.432 51.732C109.405 51.8057 109.363 51.8731 109.309 51.9304C109.256 51.9877 109.191 52.0338 109.12 52.0661C109.048 52.0983 108.971 52.1161 108.893 52.1183H108.906H101.382C101.184 52.1 100.995 52.0227 100.841 51.8963C100.687 51.7699 100.574 51.6001 100.516 51.4088L94.0729 30.6774C94.0277 30.4996 93.9239 30.3464 93.7429 30.3464C93.5619 30.3464 93.4544 30.4826 93.4148 30.6774L86.9732 51.4088C86.9146 51.6002 86.8008 51.7697 86.646 51.896C86.4912 52.0224 86.3025 52.0997 86.1039 52.1183H78.6044C78.4452 52.1138 78.2942 52.0462 78.1846 51.9302C78.075 51.8142 78.0158 51.6594 78.0198 51.4996C78.0085 51.4466 87.4729 23.3728 87.4729 23.2764Z" fill="#DA1920"/>
<path id="Vector_3" d="M62.704 23.1195C62.7055 22.9382 62.6353 22.7636 62.5088 22.6342C62.3822 22.5048 62.2097 22.4309 62.0289 22.4289H61.0333C61.0152 22.4285 60.9974 22.4244 60.9809 22.417C60.9644 22.4096 60.9495 22.399 60.937 22.3858C60.9246 22.3726 60.9149 22.3572 60.9084 22.3402C60.902 22.3233 60.8989 22.3052 60.8994 22.287V18.8646C60.8989 18.8283 60.9126 18.7932 60.9377 18.767C60.9628 18.7408 60.9971 18.7256 61.0333 18.7246H70.9861C71.166 18.7305 71.3362 18.8077 71.4596 18.9393C71.5829 19.0708 71.6493 19.246 71.6442 19.4265V51.4241C71.6493 51.6044 71.5828 51.7794 71.4594 51.9106C71.3361 52.0419 71.1658 52.1186 70.9861 52.1241H63.3565C63.1767 52.1186 63.0065 52.0419 62.8831 51.9106C62.7597 51.7794 62.6933 51.6044 62.6984 51.4241L62.704 23.1195Z" fill="#DA1920"/>
<path id="Vector_4" d="M56.3417 52.1241H47.558C47.3305 52.0932 47.112 52.0143 46.917 51.8927C46.722 51.7711 46.5549 51.6095 46.4266 51.4184C46.4266 51.4184 37.4996 38.5043 37.3978 38.4135C37.3244 38.365 37.2386 38.3387 37.1507 38.3379C37.0984 38.3398 37.0471 38.3527 37 38.3756C36.9529 38.3985 36.9111 38.4311 36.8772 38.4711C36.8433 38.5112 36.8181 38.5578 36.8032 38.6082C36.7883 38.6585 36.784 38.7114 36.7906 38.7635V38.9206V51.4298C36.7933 51.519 36.7785 51.6078 36.7471 51.6913C36.7156 51.7748 36.668 51.8512 36.607 51.9162C36.5461 51.9812 36.473 52.0335 36.3919 52.0702C36.3108 52.1068 36.2232 52.127 36.1343 52.1297H28.7367C28.5573 52.1238 28.3875 52.0468 28.2645 51.9157C28.1416 51.7845 28.0754 51.6098 28.0804 51.4298V23.2179C28.0837 23.1288 28.0694 23.04 28.0383 22.9566C28.0073 22.8732 27.9601 22.7967 27.8994 22.7316C27.8388 22.6666 27.7659 22.6142 27.685 22.5775C27.6041 22.5408 27.5167 22.5205 27.428 22.5179H27.4468H26.4116C26.3757 22.5164 26.3419 22.5009 26.3172 22.4748C26.2926 22.4486 26.2791 22.4138 26.2796 22.3779V18.8665C26.2786 18.8302 26.2918 18.7949 26.3166 18.7684C26.3413 18.7418 26.3754 18.7261 26.4116 18.7246H36.1306C36.3103 18.7305 36.4804 18.8078 36.6034 18.9394C36.7264 19.071 36.7924 19.2462 36.7868 19.4265V30.0476C36.7799 30.1 36.7841 30.1533 36.799 30.204C36.8139 30.2547 36.8392 30.3017 36.8733 30.342C36.9074 30.3822 36.9495 30.4149 36.997 30.4378C37.0445 30.4608 37.0962 30.4735 37.1489 30.4751C37.238 30.4732 37.3249 30.4464 37.3996 30.3976C37.4958 30.3106 38.8686 28.3468 38.8686 28.3468L44.9255 19.4322C45.0554 19.2403 45.2245 19.0784 45.4215 18.957C45.6185 18.8357 45.839 18.7578 46.0683 18.7284H54.4786C54.5562 18.7313 54.6324 18.7496 54.703 18.7823C54.7735 18.8149 54.8369 18.8612 54.8895 18.9185C54.9421 18.9759 54.9828 19.0431 55.0094 19.1163C55.036 19.1895 55.0478 19.2673 55.0443 19.3452C55.0463 19.4659 55.0157 19.5849 54.9557 19.6895L45.6553 33.9676C45.5562 34.0902 45.5016 34.243 45.5007 34.4008C45.4969 34.55 45.5479 34.6955 45.644 34.8095L56.7697 51.0911C56.8686 51.204 56.9187 51.3516 56.9092 51.5016C56.9128 51.5799 56.9009 51.6581 56.8743 51.7318C56.8477 51.8055 56.8068 51.8731 56.7541 51.931C56.7014 51.9888 56.6378 52.0356 56.5671 52.0687C56.4963 52.1019 56.4197 52.1207 56.3417 52.1241Z" fill="#DA1920"/>
</g>
</g>
</g>
<defs>
<clipPath id="clip0_22_22">
<rect width="132" height="70" fill="white" transform="translate(0.5 0.5)"/>
</clipPath>
</defs>
</svg>
