<svg width="305" height="71" viewBox="0 0 305 71" fill="none" xmlns="http://www.w3.org/2000/svg">
<g clip-path="url(#clip0_22_30)">
<path d="M193.697 22.7747C196.808 22.8727 199.895 22.9438 202.978 23.0808C204.81 23.149 206.625 23.456 208.378 23.994C209.581 24.3349 210.672 24.9886 211.54 25.8885C212.408 26.7884 213.022 27.9023 213.319 29.1166C213.793 30.8334 214.046 32.6038 214.069 34.3847C214.129 37.2597 214.129 40.1347 214.069 43.0097C214.043 44.79 213.793 46.5599 213.324 48.2778C213.029 49.5064 212.411 50.634 211.534 51.5442C210.658 52.4545 209.554 53.1145 208.337 53.4562C206.888 53.9103 205.389 54.1869 203.873 54.2798C201.629 54.4219 199.379 54.569 197.133 54.5758C193.242 54.5876 189.337 54.5301 185.441 54.427C183.346 54.3929 181.264 54.0935 179.244 53.5357C177.923 53.2192 176.721 52.5301 175.78 51.5504C174.839 50.5706 174.199 49.3414 173.937 48.0089C173.636 46.7376 173.431 45.4451 173.326 44.1428C173.063 40.5399 173.059 36.9227 173.314 33.3192C173.398 31.83 173.649 30.355 174.064 28.9221C174.374 27.7653 174.976 26.7072 175.811 25.8487C176.647 24.9901 177.688 24.3597 178.836 24.0177C180.634 23.4481 182.502 23.1283 184.387 23.0672C187.496 22.9387 190.609 22.8727 193.697 22.7747ZM193.697 29.7694V29.8201C193.279 29.8201 192.851 29.8032 192.441 29.8201C190.58 29.9081 188.72 29.9131 186.887 30.1245C186.411 30.1226 185.938 30.217 185.499 30.402C185.06 30.5869 184.662 30.8587 184.331 31.2009C183.999 31.5431 183.74 31.9488 183.569 32.3936C183.397 32.8383 183.318 33.3131 183.335 33.7894C183.335 33.8418 183.325 33.8942 183.32 33.9449C183.124 36.7593 183.091 39.5827 183.223 42.4009C183.255 43.1059 183.347 43.807 183.499 44.4963C183.591 45.1512 183.889 45.76 184.348 46.236C184.807 46.7119 185.405 47.0306 186.057 47.1464C186.945 47.3582 187.851 47.4823 188.764 47.5168C192.032 47.5607 195.302 47.5692 198.576 47.5168C199.594 47.4757 200.604 47.3208 201.587 47.055C202.115 46.9316 202.597 46.6607 202.977 46.2738C203.358 45.887 203.62 45.4002 203.734 44.87C203.918 44.2431 204.026 43.5964 204.057 42.9438C204.092 40.1251 204.092 37.3036 204.057 34.4794C204.028 33.8269 203.918 33.1805 203.73 32.5548C203.616 32.0391 203.362 31.565 202.995 31.185C202.628 30.805 202.163 30.534 201.651 30.4019C200.874 30.1776 200.076 30.0332 199.269 29.9707C197.413 29.8607 195.556 29.832 193.702 29.7694H193.697Z" fill="#1A1918"/>
<path d="M105 54.4861C99.8433 54.3169 95.2924 54.1664 90.7433 54.0091C89.8653 53.9787 89.7554 53.8586 89.752 52.9826C89.7464 51.3872 89.7464 49.7913 89.752 48.1948C89.752 47.4135 89.8924 47.2968 90.6807 47.3238C97.4816 47.5572 104.281 47.794 111.087 47.6841C112.863 47.6553 114.639 47.5691 116.412 47.4034C118.216 47.2343 118.644 46.6626 118.586 44.8429C118.546 43.5052 118.216 43.0807 116.886 42.8135C116.169 42.6663 115.44 42.5764 114.709 42.5446C111.127 42.411 107.542 42.3213 103.959 42.1894C101.133 42.1743 98.31 41.9697 95.5107 41.5772C94.6605 41.432 93.8233 41.2193 93.0069 40.9413C92.1725 40.6888 91.4249 40.2093 90.8474 39.5564C90.2699 38.9036 89.8854 38.1031 89.7368 37.2444C89.1558 34.338 89.1477 31.3461 89.713 28.4366C89.8806 27.4492 90.3233 26.5289 90.9899 25.7811C91.6565 25.0334 92.5202 24.4884 93.4823 24.2087C94.7999 23.7809 96.1622 23.5052 97.5425 23.3868C100.67 23.0959 103.812 22.9831 106.952 23.0486C112.054 23.0841 117.157 23.1838 122.259 23.2718C123.384 23.2904 124.507 23.3631 125.631 23.424C126.421 23.4663 126.587 23.6405 126.592 24.4387C126.6 25.9303 126.6 27.422 126.592 28.9136C126.592 29.8167 126.448 29.9486 125.536 29.9368C119.414 29.8624 113.289 29.7676 107.167 29.7304C105.025 29.7203 102.882 29.8776 100.738 29.9858C100.322 30.0259 99.9118 30.1155 99.5168 30.253C99.2193 30.3214 98.9545 30.4904 98.7672 30.7313C98.5798 30.9723 98.4812 31.2704 98.4882 31.5755C98.4746 32.1235 98.4731 32.6731 98.5001 33.221C98.489 33.5675 98.6022 33.9065 98.8194 34.1767C99.0366 34.4469 99.3434 34.6304 99.6843 34.6941C100.729 34.9263 101.791 35.0745 102.86 35.1371C106.938 35.2944 111.021 35.3739 115.099 35.5109C117.613 35.4984 120.122 35.7009 122.601 36.1164C123.291 36.2617 123.965 36.4718 124.616 36.7438C125.197 36.9883 125.719 37.3559 126.145 37.8212C126.572 38.2866 126.892 38.8387 127.084 39.4395C127.436 40.5098 127.628 41.6262 127.654 42.7526C127.78 44.7643 127.698 46.7835 127.409 48.7783C127.301 49.9228 126.831 51.0031 126.067 51.8618C125.303 52.7206 124.284 53.3129 123.159 53.5525C121.334 54.0182 119.46 54.2663 117.576 54.2916C113.186 54.3829 108.791 54.4252 105 54.4861Z" fill="#1A1918"/>
<path d="M220.051 38.7208C220.051 34.0385 220.051 29.3562 220.051 24.6738C220.051 23.5086 220.063 23.49 221.235 23.49C227.725 23.49 234.214 23.49 240.702 23.49C243.476 23.4531 246.25 23.5711 249.01 23.8435C250.628 23.982 252.219 24.3434 253.737 24.9173C254.643 25.2681 255.461 25.8134 256.134 26.5147C256.806 27.216 257.316 28.0563 257.628 28.9762C258.162 30.5648 258.468 32.2213 258.535 33.8959C258.747 37.1057 258.747 40.3259 258.535 43.5356C258.458 45.0243 258.213 46.4994 257.804 47.9327C257.499 49.0628 256.91 50.0962 256.093 50.9352C255.277 51.7742 254.26 52.391 253.138 52.7272C251.572 53.2465 249.943 53.5526 248.295 53.6371C245.527 53.791 242.754 53.9246 239.985 53.9449C233.757 53.9889 227.53 53.9585 221.303 53.9585C220.051 53.9585 220.046 53.9584 220.046 52.6765C220.049 48.0291 220.051 43.3773 220.051 38.7208ZM229.398 46.9755C229.736 46.9924 229.992 47.0144 230.244 47.0161C231.238 47.0161 232.233 47.0161 233.228 47.0161C236.442 46.9925 239.667 47.0009 242.884 46.9147C243.981 46.867 245.069 46.7078 246.133 46.4394C246.727 46.3107 247.27 46.0079 247.692 45.5697C248.113 45.1315 248.395 44.5776 248.501 43.9788C248.671 43.2671 248.776 42.5414 248.814 41.8106C248.873 40.2683 248.885 38.7242 248.867 37.1802C248.858 36.2127 248.794 35.2466 248.674 34.2865C248.661 33.3795 248.302 32.5116 247.672 31.8591C247.042 31.2066 246.186 30.8186 245.28 30.7739C244.197 30.5895 243.102 30.4872 242.003 30.4678C237.999 30.4222 233.994 30.4289 229.992 30.4222C229.791 30.4349 229.59 30.461 229.393 30.5L229.398 46.9755Z" fill="#1A1918"/>
<path d="M272.077 49.2129C271.401 50.5287 270.687 51.8106 270.047 53.128C269.944 53.4067 269.75 53.6426 269.497 53.7981C269.243 53.9535 268.945 54.0195 268.65 53.9855C266.087 53.9499 263.522 53.9736 260.959 53.9702C259.902 53.9702 259.775 53.7639 260.242 52.8355C265.092 43.2802 269.941 33.7244 274.791 24.1681C274.877 23.9524 275.03 23.7701 275.228 23.6483C275.426 23.5264 275.657 23.4715 275.889 23.4916C280.127 23.5074 284.365 23.5074 288.602 23.4916C288.861 23.4844 289.114 23.5618 289.324 23.7121C289.534 23.8623 289.69 24.0771 289.766 24.3237C292.609 29.9452 295.458 35.5628 298.315 41.1764C300.267 45.0221 302.206 48.8713 304.183 52.7069C304.691 53.6827 304.677 54.0074 303.363 53.9905C300.825 53.9567 298.288 53.9635 295.75 53.9905C295.479 54.0193 295.207 53.9575 294.975 53.8149C294.744 53.6723 294.566 53.4569 294.47 53.2024C293.891 52.0017 293.241 50.8348 292.646 49.651C292.584 49.4957 292.472 49.3649 292.329 49.2783C292.186 49.1916 292.019 49.1538 291.852 49.1706C285.365 49.1808 278.88 49.1847 272.397 49.1825C272.29 49.1868 272.183 49.197 272.077 49.2129ZM275.381 42.7543H289.054C288.973 42.5446 288.932 42.4008 288.865 42.2706C286.923 38.4801 284.981 34.6901 283.04 30.9007C282.871 30.5845 282.688 30.3934 282.316 30.4458C282.113 30.4712 281.905 30.4745 281.681 30.4881L275.381 42.7543Z" fill="#1A1918"/>
<path d="M154.238 36.7084C154.746 37.2157 155.172 37.6724 155.62 38.1036C160.715 42.999 165.81 47.8928 170.905 52.7848C171.082 52.9424 171.248 53.1119 171.401 53.2922C171.658 53.6186 171.553 53.8892 171.139 53.9585C170.904 53.9841 170.669 53.9909 170.433 53.9788C167.05 53.9788 163.68 53.9602 160.305 53.994C159.969 54.0068 159.634 53.9474 159.323 53.8199C159.012 53.6925 158.732 53.4998 158.501 53.255C154.871 49.7068 151.228 46.1717 147.573 42.6495C147.442 42.5227 147.307 42.4026 147.143 42.2504C146.974 42.3654 146.789 42.4652 146.635 42.5887C145.35 43.5797 144.083 44.591 142.78 45.5584C142.598 45.6795 142.452 45.8474 142.357 46.0444C142.263 46.2414 142.223 46.4603 142.242 46.678C142.266 48.7446 142.254 50.8112 142.242 52.8795C142.242 53.9061 142.166 53.9788 141.112 53.9788C138.73 53.9788 136.348 53.9788 133.966 53.9788C133.047 53.9788 132.934 53.8638 132.934 52.9286C132.934 43.4579 132.934 33.9873 132.934 24.5166C132.934 23.6101 133.03 23.512 133.915 23.5104C136.376 23.5104 138.836 23.5104 141.296 23.5104C142.142 23.5104 142.239 23.6 142.24 24.4625C142.246 28.2045 142.246 31.946 142.24 35.6869C142.24 35.9625 142.261 36.2399 142.277 36.6526C142.641 36.3752 142.888 36.1909 143.123 36.0015C148.186 32.026 153.247 28.0478 158.307 24.0667C158.768 23.6825 159.353 23.4799 159.953 23.4968C163.145 23.5222 166.339 23.4968 169.532 23.5154C169.87 23.5154 170.355 23.3463 170.493 23.7945C170.611 24.1834 170.154 24.3407 169.906 24.5386C164.943 28.3923 159.981 32.2425 155.018 36.0894C154.788 36.2687 154.548 36.4631 154.238 36.7084Z" fill="#1A1918"/>
<path d="M109.358 21.1579C108.102 21.1579 106.847 21.141 105.594 21.1579C105.347 21.1764 105.1 21.1353 104.873 21.0382C104.646 20.9411 104.446 20.7906 104.289 20.5998C103.14 19.2773 101.965 17.9801 100.801 16.6711C100.69 16.5597 100.59 16.438 100.503 16.3075C100.293 15.9524 100.418 15.7207 100.841 15.6666C100.945 15.6597 101.05 15.6597 101.154 15.6666C102.846 15.6666 104.555 15.6801 106.253 15.6666C106.488 15.6473 106.724 15.6947 106.934 15.8033C107.143 15.9119 107.318 16.0772 107.437 16.2805C107.808 16.8487 108.209 17.3984 108.608 17.948C109.085 18.6076 109.682 18.5974 110.17 17.9243C110.552 17.395 110.941 16.8673 111.298 16.3211C111.42 16.106 111.601 15.93 111.819 15.8136C112.038 15.6971 112.285 15.645 112.531 15.6632C114.204 15.6937 115.878 15.6733 117.551 15.6733C117.656 15.6733 117.761 15.6733 117.864 15.6733C118.371 15.7258 118.48 15.9794 118.19 16.4107C118.113 16.5159 118.029 16.6158 117.938 16.71C116.79 17.997 115.627 19.2739 114.499 20.5778C114.336 20.7798 114.126 20.9391 113.888 21.0422C113.65 21.1453 113.391 21.1891 113.132 21.1697C111.87 21.1393 110.62 21.1579 109.358 21.1579Z" fill="#1A1918"/>
<path d="M29.6388 14.8682C31.1313 14.4639 32.6434 14.1359 34.1693 13.8856C39.9618 13.2412 40.1191 13.3055 43.8122 17.8108C46.002 20.4585 47.6411 23.5165 48.6334 26.8056C49.6258 30.0947 49.9514 33.5487 49.5912 36.9652C49.3493 39.9299 48.6675 42.8573 48.1853 45.8017C48.1076 46.038 48.0682 46.2852 48.0686 46.534C48.1854 47.1631 48.1956 48.1592 48.5593 48.3266C49.373 48.6987 49.4846 47.7635 49.8399 47.224C50.0006 47.0354 50.2061 46.8902 50.4375 46.8016C50.669 46.713 50.919 46.6837 51.1647 46.7166C53.1593 47.5961 55.1283 48.5482 57.0315 49.6069C57.193 49.6921 57.3299 49.8174 57.4288 49.9709C57.5277 50.1243 57.5854 50.3007 57.5963 50.4829C57.6072 50.6651 57.5709 50.847 57.491 51.0112C57.411 51.1753 57.2901 51.316 57.1399 51.4198C55.386 53.0261 53.2106 54.0996 50.8685 54.5147C50.6687 54.5017 50.4755 54.4383 50.3068 54.3303C50.1382 54.2224 49.9997 54.0734 49.9043 53.8974C49.8038 53.5119 49.576 53.1716 49.2579 52.9315C48.9398 52.6915 48.5501 52.5658 48.1516 52.5749C46.9945 52.4886 45.8322 52.4227 44.6717 52.4227C39.5671 52.4227 34.463 52.4419 29.3596 52.4802C27.6966 52.4496 26.054 52.8486 24.5906 53.6386C23.6001 54.1425 22.5044 54.405 21.3931 54.4048C21.0092 54.3833 20.6334 54.286 20.2872 54.1185C19.9411 53.951 19.6315 53.7167 19.3765 53.429C18.0637 51.8291 16.893 50.1091 15.7376 48.3875C15.0152 47.3119 15.2808 46.7657 16.5717 46.6845C20.0178 46.4697 23.457 46.3175 26.6646 48.0374C27.347 48.2849 28.0615 48.433 28.7861 48.4772C28.9027 47.7332 28.926 46.9776 28.8555 46.2279C28.4147 43.9307 27.3662 41.7935 25.8191 40.0387C24.272 38.2839 22.2826 36.9756 20.0582 36.2498C18.4646 35.6647 16.822 35.2047 15.1793 34.7684C14.1338 34.491 13.6567 33.9414 14.0119 32.8912C14.714 30.8178 15.428 28.7461 16.2113 26.6997C16.2666 26.4761 16.373 26.2683 16.5221 26.0927C16.6712 25.917 16.8591 25.7783 17.0708 25.6874C17.2825 25.5965 17.5125 25.5558 17.7426 25.5686C17.9727 25.5814 18.1967 25.6473 18.397 25.7611C20.5692 26.5779 22.7702 27.3221 24.9695 28.0679C25.8154 28.3571 26.6984 28.5651 27.5629 28.812L27.732 28.5279C27.2263 28.0143 26.6944 27.5271 26.1384 27.0684C24.2132 25.6264 22.2706 24.2075 20.3104 22.8117C19.4121 22.1707 19.3376 21.5162 20.1784 20.8211C21.6113 19.6373 23.0544 18.4535 24.5296 17.3271C24.9534 16.979 25.4856 16.7897 26.0341 16.7918C26.5826 16.794 27.1132 16.9875 27.5342 17.339C29.6557 18.8611 31.7636 20.4034 33.8969 21.9052C34.8637 22.6172 35.9149 23.2068 37.0266 23.6606C35.2722 20.3087 32.2914 17.98 29.6388 14.8682ZM44.357 43.204C44.3829 42.843 44.3368 42.4804 44.2215 42.1373C44.1062 41.7941 43.9239 41.4773 43.6852 41.2052C43.4464 40.933 43.1561 40.7109 42.8308 40.5518C42.5056 40.3927 42.1521 40.2997 41.7906 40.2783C41.0179 40.2738 40.2706 40.5542 39.6916 41.0659C39.1127 41.5776 38.7427 42.2846 38.6525 43.0518C38.7913 43.7822 39.1722 44.4446 39.734 44.9319C40.2957 45.4192 41.0053 45.7029 41.7483 45.7374C42.0903 45.7601 42.4331 45.7108 42.7548 45.5927C43.0765 45.4745 43.3699 45.2901 43.6158 45.0515C43.8617 44.8128 44.0548 44.5252 44.1825 44.2073C44.3101 43.8893 44.3696 43.5481 44.357 43.2057V43.204Z" fill="#4AA82D"/>
<path d="M35.5109 3.95826C39.656 3.94675 43.7622 4.75721 47.5919 6.34279C51.4216 7.92837 54.8986 10.2576 57.8217 13.1955C60.7605 16.1175 63.0903 19.5931 64.6764 23.4212C66.2625 27.2493 67.0733 31.3538 67.062 35.4972C67.0733 39.6407 66.2625 43.7452 64.6764 47.5733C63.0903 51.4014 60.7605 54.877 57.8217 57.7989C54.8988 60.7367 51.422 63.0658 47.5926 64.6513C43.7632 66.2369 39.6573 67.0475 35.5125 67.0362C31.3677 67.0475 27.2618 66.2369 23.4324 64.6513C19.6031 63.0658 16.1263 60.7367 13.2033 57.7989C10.2646 54.877 7.93474 51.4014 6.34864 47.5733C4.76253 43.7452 3.9517 39.6407 3.963 35.4972C3.9517 31.3538 4.76253 27.2493 6.34864 23.4212C7.93474 19.5931 10.2646 16.1175 13.2033 13.1955C16.1263 10.2578 19.6031 7.92873 23.4324 6.34315C27.2618 4.75758 31.366 3.94697 35.5109 3.95826ZM35.5125 0.499756C26.2248 0.499756 17.3176 4.18806 10.7502 10.7533C4.18275 17.3185 0.493164 26.2228 0.493164 35.5074C0.493164 44.792 4.18275 53.6963 10.7502 60.2615C17.3176 66.8267 26.2248 70.515 35.5125 70.515C44.8002 70.515 53.7075 66.8267 60.2749 60.2615C66.8423 53.6963 70.5319 44.792 70.5319 35.5074C70.5319 26.2228 66.8423 17.3185 60.2749 10.7533C53.7075 4.18806 44.8002 0.499756 35.5125 0.499756Z" fill="url(#paint0_linear_22_30)"/>
<path d="M35.5109 6.27C39.3521 6.2594 43.1573 7.01062 46.7062 8.48009C50.255 9.94956 53.4771 12.1081 56.1858 14.8308C58.9095 17.5386 61.0687 20.7596 62.5387 24.3073C64.0087 27.855 64.7601 31.6589 64.7495 35.4989C64.7601 39.3388 64.0087 43.1427 62.5387 46.6904C61.0687 50.2381 58.9095 53.459 56.1858 56.1668C53.4771 58.8895 50.255 61.048 46.7062 62.5175C43.1573 63.9869 39.3521 64.7382 35.5109 64.7277C31.6697 64.7382 27.8645 63.9869 24.3156 62.5175C20.7667 61.048 17.5447 58.8895 14.8359 56.1668C12.1123 53.459 9.95302 50.2381 8.48306 46.6904C7.0131 43.1427 6.26163 39.3388 6.27224 35.4989C6.26163 31.6589 7.0131 27.855 8.48306 24.3073C9.95302 20.7596 12.1123 17.5386 14.8359 14.8308C17.5446 12.1081 20.7667 9.94956 24.3156 8.48009C27.8645 7.01062 31.6696 6.2594 35.5109 6.27ZM35.5109 3.78906C27.0981 3.78906 19.0299 7.12988 13.0812 13.0766C7.13245 19.0234 3.79047 27.0889 3.79047 35.4989C3.79047 43.9088 7.13245 51.9743 13.0812 57.921C19.0299 63.8678 27.0981 67.2086 35.5109 67.2086C43.9237 67.2086 51.9918 63.8678 57.9406 57.921C63.8893 51.9743 67.2313 43.9088 67.2313 35.4989C67.2313 27.0889 63.8893 19.0234 57.9406 13.0766C51.9918 7.12988 43.9237 3.78906 35.5109 3.78906Z" fill="#1A1A17"/>
</g>
<defs>
<linearGradient id="paint0_linear_22_30" x1="35.5125" y1="0.499756" x2="35.5125" y2="70.515" gradientUnits="userSpaceOnUse">
<stop stop-color="#E3E3E3"/>
<stop offset="0.54" stop-color="#B0B0B0"/>
<stop offset="1" stop-color="#848484"/>
</linearGradient>
<clipPath id="clip0_22_30">
<rect width="304" height="70" fill="white" transform="translate(0.5 0.5)"/>
</clipPath>
</defs>
</svg>
