<svg width="145" height="71" viewBox="0 0 145 71" fill="none" xmlns="http://www.w3.org/2000/svg">
<g id="IMAGE" clip-path="url(#clip0_22_45)">
<g id="Group">
<g id="Group_2">
<path id="Vector" d="M72.475 70.5C67.5923 70.5 62.7066 70.2616 57.9546 69.7887C53.4168 69.3406 48.9046 68.6593 44.437 67.7474C40.3033 66.9036 36.2209 65.8253 32.21 64.5178C28.5674 63.3333 25.0099 61.9043 21.5605 60.2403C18.4904 58.7656 15.5518 57.0314 12.7779 55.0565C10.3458 53.3334 8.12056 51.3363 6.1463 49.1046C4.4111 47.1463 2.99731 44.9261 1.95715 42.5264C1.00464 40.2921 0.508584 37.8904 0.498169 35.4621C0.508858 33.0412 1.00496 30.647 1.95715 28.4206C2.99788 26.027 4.41171 23.8131 6.1463 21.8613C8.1211 19.6341 10.3463 17.6413 12.7779 15.9226C15.5531 13.9514 18.4915 12.2192 21.5605 10.7446C25.011 9.08471 28.5683 7.65744 32.21 6.47264C36.2209 5.1688 40.3034 4.09507 44.437 3.25651C48.9045 2.34441 53.4167 1.66309 57.9546 1.2152C62.7066 0.744119 67.5923 0.503662 72.475 0.503662C77.3578 0.503662 82.2334 0.742227 86.9835 1.2152C91.5212 1.66362 96.0325 2.34493 100.5 3.25651C104.636 4.09508 108.72 5.16881 112.733 6.47264C116.379 7.65735 119.941 9.08461 123.396 10.7446C126.47 12.2189 129.413 13.951 132.193 15.9226C134.629 17.6419 136.859 19.6346 138.839 21.8613C140.578 23.8118 141.995 26.0259 143.037 28.4206C143.993 30.6461 144.491 33.0406 144.502 35.4621C144.491 37.8909 143.993 40.2929 143.037 42.5264C141.995 44.9269 140.578 47.1472 138.839 49.1046C136.859 51.3359 134.629 53.3329 132.193 55.0565C129.414 57.0308 126.471 58.7649 123.396 60.2403C119.942 61.9033 116.379 63.3323 112.733 64.5178C108.72 65.8253 104.636 66.9036 100.5 67.7474C96.0326 68.6592 91.5213 69.3405 86.9835 69.7887C82.2334 70.2616 77.3521 70.5 72.475 70.5ZM100.422 50.0411C100.759 50.6307 101.262 51.1087 101.868 51.4157C102.475 51.7227 103.158 51.8453 103.833 51.7683H103.861C105.48 51.7163 107.069 51.3086 108.512 50.5741C109.955 49.8397 111.218 48.7966 112.212 47.5192C113.013 46.5716 113.706 45.5379 114.279 44.4373C114.593 43.8968 114.824 43.3119 114.963 42.7024C114.965 42.5013 114.916 42.303 114.823 42.1251C114.729 41.9471 114.592 41.795 114.425 41.6826C114.091 41.4511 113.723 41.2747 113.333 41.1604C113.171 41.1061 113.002 41.0786 112.832 41.0791C112.145 41.1508 111.513 41.4909 111.077 42.0251L110.362 42.7819L110.338 42.8084L109.8 43.3758C107.545 45.7615 106.412 46.9609 105.544 47.1709C105.618 46.9818 113.94 32.2252 116.676 27.3858L116.731 27.2892L117.489 25.9648C117.533 25.8899 117.556 25.8047 117.556 25.7179C117.556 25.6311 117.533 25.5459 117.489 25.471C117.446 25.3959 117.383 25.3335 117.309 25.2899C117.234 25.2464 117.149 25.2234 117.062 25.2232L111.831 25.2043C111.745 25.205 111.661 25.2277 111.586 25.2701C111.512 25.3125 111.45 25.3732 111.405 25.4465L105.55 35.3164C105.103 34.5688 104.468 33.9515 103.708 33.5259C102.947 33.1002 102.088 32.8813 101.216 32.891H101.052C96.741 32.891 94.4527 35.2862 92.0293 37.8233C91.9149 37.9574 91.812 38.101 91.7222 38.2526V38.2641L91.6972 38.3018C91.318 38.9321 90.8512 39.5055 90.3104 40.0045C89.5815 40.6567 88.6366 41.0159 87.6579 41.0128C86.3828 40.9467 85.1478 40.5434 84.0803 39.8438V39.8154C84.1201 39.478 84.2135 39.1491 84.3569 38.841C84.7103 39.3451 85.1867 39.7514 85.7401 40.0221C86.2934 40.2927 86.9065 40.4188 87.5219 40.3886H87.5534C88.549 40.3199 89.4827 39.8801 90.1688 39.1565C90.8549 38.4329 91.2435 37.4783 91.2577 36.4819V36.4422C91.2628 35.9549 91.1708 35.4714 90.9867 35.0201C90.8025 34.5688 90.5301 34.1587 90.1855 33.8136C89.8408 33.4686 89.4306 33.1954 88.979 33.0104C88.5275 32.8254 88.0433 32.732 87.5552 32.7358C87.4378 32.7358 87.3167 32.7226 87.1898 32.7226H87.1694C86.3499 32.7445 85.5425 32.9284 84.7945 33.2635C84.0465 33.5986 83.3722 34.0783 82.811 34.675C82.6673 34.342 82.4762 34.0317 82.2429 33.7538C81.8306 33.3028 81.3222 32.9497 80.7553 32.7206C80.1884 32.4914 79.5774 32.3918 78.9669 32.4293H78.6977C78.1775 32.4041 77.659 32.5001 77.1823 32.7095C74.974 33.8473 73.0638 35.4875 71.6072 37.4979C71.4311 36.0429 70.8179 34.6755 69.8476 33.576C69.6747 33.4027 69.4673 33.2675 69.2388 33.1792C69.0104 33.0909 68.7656 33.0514 68.5209 33.0633H68.5098C68.093 33.1003 67.6897 33.2294 67.3293 33.4416C67.1758 33.5172 67.0335 33.5948 66.9046 33.6667L66.8787 33.6817C66.7898 33.7389 66.6937 33.7855 66.5938 33.8201C66.3908 33.518 66.1124 33.2737 65.7861 33.1118C65.4598 32.9499 65.097 32.8759 64.7333 32.8968H64.699C60.7352 33.0216 57.4726 35.4073 55.2614 39.7964L54.8433 40.5967L54.8238 40.6327V40.6477C54.2933 41.6542 53.7552 42.6873 53.4028 43.4195L53.388 43.4458L53.3704 43.4971C52.8823 44.3503 52.2036 45.0793 51.3868 45.6273L51.0723 45.8714L50.5366 46.2894L49.3311 45.8128L49.5661 47.5437C49.6994 48.2876 50.0835 48.9638 50.6541 49.4603L50.7068 49.5076L50.7651 49.5453C50.9572 49.6719 51.1835 49.738 51.4137 49.7347C51.824 49.704 52.2204 49.574 52.5692 49.3561L52.6885 49.2956L52.7135 49.2806C53.298 48.9488 53.8642 48.5855 54.4094 48.1926C54.9812 49.3102 55.8613 50.2409 56.9462 50.8746C58.031 51.5083 59.2753 51.8183 60.5312 51.7683H60.5617C65.0522 51.7683 67.8385 48.3194 69.8735 45.7994V45.7881C70.1198 45.4835 70.3404 45.211 70.5507 44.9613C71.506 43.8087 72.5394 42.7234 73.6444 41.7131C74.2339 41.0543 74.9864 40.5622 75.8269 40.2865C75.8668 40.2837 75.9066 40.2902 75.9435 40.3057C75.9803 40.3211 76.0137 40.3451 76.0397 40.3754C76.1231 40.4852 76.1266 40.695 76.049 41.0015L70.3832 50.7921C70.3388 50.8675 70.3157 50.9534 70.3157 51.0409C70.3157 51.1284 70.3388 51.2142 70.3832 51.2896C70.4254 51.3656 70.4877 51.4288 70.5627 51.4727C70.6377 51.5167 70.7228 51.5398 70.8097 51.5395L76.3903 51.5603C76.4794 51.5604 76.5665 51.5364 76.6429 51.4907C76.7193 51.4451 76.7823 51.3796 76.8242 51.3011L76.8557 51.2425L77.0342 50.9113L77.0796 50.8261C77.7958 49.5018 79.7019 45.9545 80.7497 44.0456L81.0587 43.4782C81.4991 44.1919 82.1211 44.7759 82.8619 45.1705C83.6026 45.5651 84.4357 45.7562 85.2747 45.7239C85.5816 45.7239 85.8145 45.7389 86.0324 45.7389H86.112C86.9498 45.7564 87.7864 45.6712 88.6034 45.4853C88.5964 46.4259 88.7898 47.3574 89.1715 48.2174C89.5501 49.2196 90.2312 50.0799 91.1199 50.6799C92.0086 51.28 93.0615 51.5903 94.1341 51.5679H94.1739C96.3471 51.5306 98.4837 51.0056 100.426 50.0316L100.422 50.0411ZM35.2325 32.5411L35.1058 32.5732C32.7488 33.1307 30.6416 34.4487 29.1107 36.3231C27.8044 37.8946 27.0771 39.8656 27.0495 41.9077C27.0288 43.1502 27.2637 44.3838 27.7396 45.5319C28.2156 46.6801 28.9225 47.7183 29.8166 48.5827C30.7107 49.4471 31.7726 50.1191 32.9372 50.557C34.1019 50.995 35.344 51.1896 36.587 51.1289C40.1749 51.2433 43.6731 49.9975 46.3789 47.6421C49.8084 44.8515 53.6419 39.9214 58.4412 32.1287C58.8353 32.0416 59.2933 31.9545 59.6495 31.8864H59.6634H59.6726C62.409 31.533 65.0489 30.6446 67.4412 29.2719C68.6103 28.4243 69.734 27.3289 69.2129 25.6262C69.0794 24.9028 68.7096 24.2439 68.161 23.753C67.6124 23.2621 66.9159 22.9669 66.1811 22.9133C65.2474 23.0022 64.3743 23.4137 63.7119 24.0768C63.0495 24.7399 62.6393 25.613 62.5527 26.5456C62.2798 26.8672 61.2533 26.9882 60.6394 27.0601H60.6255L60.5404 27.0696H60.5025L60.3128 27.0943C60.9156 26.3372 61.3834 25.4821 61.6959 24.5666C61.8777 24.0364 61.8986 23.4646 61.7552 22.9228C61.6598 22.6237 61.4958 22.3508 61.2769 22.1255C61.0579 21.9003 60.7898 21.7289 60.4932 21.6249L60.3831 21.5888C60.169 21.5122 59.9435 21.472 59.7161 21.4697C58.6929 21.4697 57.5071 21.9881 53.3482 28.3543C50.4928 28.6949 47.0174 29.3003 45.4713 31.0635L45.4417 31.0956L45.4149 31.1296C45.1235 31.5153 44.9435 31.9734 44.894 32.4541V32.5864L44.9236 32.715C44.9875 33.0623 45.1693 33.3773 45.438 33.6067C45.7068 33.8361 46.0467 33.9661 46.4002 33.975C46.8405 33.8706 47.2574 33.6853 47.6297 33.4284C48.5292 32.8545 49.5534 32.5036 50.6162 32.4049L50.1647 33.0159L50.0981 33.1067L49.7003 33.6441V33.6554C47.8359 36.3705 45.7477 38.9252 43.4573 41.293C42.5686 42.1627 41.5493 42.8878 40.4357 43.4421C39.3882 43.9447 38.2403 44.2035 37.0782 44.1989C36.4253 44.1954 35.7737 44.1243 35.1354 43.9869L35.0938 43.9756C34.3931 43.7295 33.79 43.2664 33.3711 42.6539C32.9523 42.0414 32.7396 41.3116 32.7651 40.5703C32.8847 39.6011 33.2239 38.6715 33.756 37.8521C34.2881 37.0328 34.9993 36.3451 35.8367 35.8406L35.8691 35.8291L35.9014 35.8141C36.2609 35.7034 36.5777 35.4858 36.81 35.1903C37.0422 34.8948 37.179 34.5355 37.2013 34.1605C37.1983 33.9309 37.1463 33.7046 37.0496 33.4963C36.9529 33.288 36.8133 33.1026 36.6397 32.952C36.4662 32.8014 36.263 32.689 36.043 32.6224C35.823 32.5558 35.5911 32.5365 35.363 32.5656H35.2325V32.5411ZM54.6157 12.9222C49.1069 12.6788 43.6692 14.2357 39.1266 17.3568C37.8106 18.1279 36.7092 19.2172 35.9255 20.5244C35.1418 21.8317 34.7004 23.3148 34.6414 24.8373C34.6207 26.5489 35.2746 28.1999 36.4621 29.4345C36.9667 29.9559 37.5712 30.3712 38.2393 30.6552C38.9075 30.9393 39.6262 31.0863 40.3524 31.088C41.6153 31.0577 42.8571 30.7617 43.9976 30.2192C45.138 29.6767 46.1508 28.9001 46.9701 27.94C48.2609 26.5876 49.1699 24.9178 49.604 23.1006C49.6501 22.8644 49.6477 22.6214 49.5976 22.3861C49.5474 22.1507 49.451 21.9279 49.3126 21.7309C49.1791 21.5739 49.0106 21.4496 48.8214 21.3676C48.6321 21.2856 48.427 21.248 48.2209 21.2579H48.1996C47.8934 21.2607 47.5951 21.3533 47.3411 21.5242C47.0871 21.695 46.8889 21.9365 46.7712 22.2188C45.6961 23.8287 44.0467 24.9688 42.1593 25.4068C41.9924 25.4382 41.8239 25.4547 41.6541 25.456C41.4789 25.4765 41.3006 25.4598 41.1323 25.407C40.964 25.3543 40.8091 25.2666 40.6771 25.1498C40.5451 25.0329 40.439 24.8897 40.3663 24.7292C40.2936 24.5687 40.2559 24.3947 40.2553 24.2186C40.2426 23.6072 40.3572 23 40.592 22.4352C40.8269 21.8705 41.1772 21.3606 41.6199 20.938C42.8192 19.6761 45.845 17.5609 52.6395 17.5609C55.894 17.7542 59.1198 18.2837 62.2649 19.1408C63.1971 19.3508 64.4836 19.7802 65.9767 20.2759C70.6824 22.0833 75.6443 23.1363 80.6794 23.3957C85.1718 23.3957 91.8017 20.4726 91.8017 17.8466C91.8017 16.3577 90.712 16.0457 89.7987 16.0457C89.5182 16.0437 89.2384 16.0704 88.9633 16.1252C88.8383 16.1479 88.7018 16.1723 88.5294 16.1894C86.4717 16.3786 84.3972 16.479 82.3641 16.479C76.4168 16.4299 70.4978 15.6475 64.7425 14.1499C63.2779 13.8037 62.1228 13.5293 61.2019 13.3931C59.0205 13.0862 56.8186 12.929 54.6157 12.9222ZM60.9308 45.3322C60.1275 45.143 59.7235 44.3162 59.9224 43.2851C60.1184 42.1161 60.7077 41.0485 61.5923 40.2581C62.279 39.6541 63.1552 39.3093 64.0699 39.2838C64.6128 39.2666 65.1443 39.4414 65.5705 39.7775C65.8131 39.9837 65.7493 40.8162 65.4234 41.7149C65.0972 42.6268 64.5681 43.4528 63.8756 44.1308C63.0955 44.9034 62.0407 45.3371 60.9419 45.3377L60.9308 45.3322ZM96.5293 45.1638C96.2479 45.1928 95.9636 45.1594 95.6967 45.0659C95.4297 44.9724 95.1868 44.821 94.9852 44.6227C94.8225 43.9922 94.8786 43.3254 95.1443 42.7308C95.3714 42.0813 95.7386 41.4896 96.2203 40.9978C97.0113 40.1021 98.1185 39.5469 99.3104 39.4484C99.5889 39.4198 99.8697 39.4668 100.124 39.5847C100.377 39.7026 100.595 39.887 100.753 40.1182C100.888 40.6491 100.855 41.2086 100.659 41.7204C100.47 42.2841 100.186 42.8116 99.8183 43.2795C99.4585 43.8307 98.9733 44.2887 98.4018 44.6162C97.8304 44.9438 97.1874 45.1315 96.5293 45.1638Z" fill="#003179"/>
</g>
<path id="Vector_2" d="M73.5649 68.5117C55.3603 68.5117 38.2243 65.2652 25.3135 59.37C11.8761 53.2346 4.47144 44.8706 4.47144 35.8217C4.47144 26.7727 11.8723 18.4541 25.3135 12.3282C38.2319 6.4368 55.366 3.19409 73.5649 3.19409C91.7639 3.19409 108.885 6.43679 121.82 12.3262C135.284 18.456 142.7 26.8011 142.7 35.8217C142.7 44.8422 135.284 53.2271 121.82 59.3719C108.892 65.2652 91.7544 68.5117 73.5649 68.5117ZM73.5649 7.44516C55.9647 7.44516 39.4596 10.5517 27.0832 16.1933C15.4211 21.5114 8.7327 28.6646 8.7327 35.8198C8.7327 43.1092 15.2506 50.0998 27.0832 55.4955C39.4502 61.1427 55.9571 64.2511 73.5649 64.2511C91.1727 64.2511 107.67 61.1409 120.052 55.4955C131.739 50.166 138.443 42.9919 138.443 35.8198C138.443 28.6476 131.741 21.5133 120.054 16.1933C107.661 10.5517 91.15 7.44516 73.5649 7.44516Z" fill="white"/>
</g>
</g>
<defs>
<clipPath id="clip0_22_45">
<rect width="144" height="70" fill="white" transform="translate(0.5 0.5)"/>
</clipPath>
</defs>
</svg>
